%TF.GenerationSoftware,KiCad,Pcbnew,9.0.6*%
%TF.CreationDate,2026-05-15T16:06:40+09:00*%
%TF.ProjectId,68k8-boad,36386b38-2d62-46f6-9164-2e6b69636164,rev?*%
%TF.SameCoordinates,Original*%
%TF.FileFunction,Soldermask,Bot*%
%TF.FilePolarity,Negative*%
%FSLAX46Y46*%
G04 Gerber Fmt 4.6, Leading zero omitted, Abs format (unit mm)*
G04 Created by KiCad (PCBNEW 9.0.6) date 2026-05-15 16:06:40*
%MOMM*%
%LPD*%
G01*
G04 APERTURE LIST*
G04 Aperture macros list*
%AMRoundRect*
0 Rectangle with rounded corners*
0 $1 Rounding radius*
0 $2 $3 $4 $5 $6 $7 $8 $9 X,Y pos of 4 corners*
0 Add a 4 corners polygon primitive as box body*
4,1,4,$2,$3,$4,$5,$6,$7,$8,$9,$2,$3,0*
0 Add four circle primitives for the rounded corners*
1,1,$1+$1,$2,$3*
1,1,$1+$1,$4,$5*
1,1,$1+$1,$6,$7*
1,1,$1+$1,$8,$9*
0 Add four rect primitives between the rounded corners*
20,1,$1+$1,$2,$3,$4,$5,0*
20,1,$1+$1,$4,$5,$6,$7,0*
20,1,$1+$1,$6,$7,$8,$9,0*
20,1,$1+$1,$8,$9,$2,$3,0*%
G04 Aperture macros list end*
%ADD10RoundRect,0.250000X-0.550000X-0.550000X0.550000X-0.550000X0.550000X0.550000X-0.550000X0.550000X0*%
%ADD11C,1.600000*%
%ADD12C,3.200000*%
%ADD13RoundRect,0.250000X0.550000X-0.550000X0.550000X0.550000X-0.550000X0.550000X-0.550000X-0.550000X0*%
%ADD14R,1.700000X1.700000*%
%ADD15C,1.700000*%
%ADD16RoundRect,0.250000X0.550000X0.550000X-0.550000X0.550000X-0.550000X-0.550000X0.550000X-0.550000X0*%
%ADD17C,4.000000*%
%ADD18R,1.600000X1.600000*%
%ADD19RoundRect,0.250001X0.499999X0.499999X-0.499999X0.499999X-0.499999X-0.499999X0.499999X-0.499999X0*%
%ADD20C,1.500000*%
%ADD21R,3.500000X3.500000*%
%ADD22RoundRect,0.750000X-0.750000X-1.000000X0.750000X-1.000000X0.750000X1.000000X-0.750000X1.000000X0*%
%ADD23RoundRect,0.875000X-0.875000X-0.875000X0.875000X-0.875000X0.875000X0.875000X-0.875000X0.875000X0*%
%ADD24RoundRect,0.250000X0.600000X0.750000X-0.600000X0.750000X-0.600000X-0.750000X0.600000X-0.750000X0*%
%ADD25O,1.700000X2.000000*%
%ADD26C,2.000000*%
G04 APERTURE END LIST*
D10*
%TO.C,U4*%
X63500000Y-33020000D03*
D11*
X63500000Y-35560000D03*
X63500000Y-38100000D03*
X63500000Y-40640000D03*
X63500000Y-43180000D03*
X63500000Y-45720000D03*
X63500000Y-48260000D03*
X71120000Y-48260000D03*
X71120000Y-45720000D03*
X71120000Y-43180000D03*
X71120000Y-40640000D03*
X71120000Y-38100000D03*
X71120000Y-35560000D03*
X71120000Y-33020000D03*
%TD*%
D10*
%TO.C,U16*%
X5080000Y-63500000D03*
D11*
X5080000Y-66040000D03*
X5080000Y-68580000D03*
X5080000Y-71120000D03*
X5080000Y-73660000D03*
X5080000Y-76200000D03*
X5080000Y-78740000D03*
X5080000Y-81280000D03*
X12700000Y-81280000D03*
X12700000Y-78740000D03*
X12700000Y-76200000D03*
X12700000Y-73660000D03*
X12700000Y-71120000D03*
X12700000Y-68580000D03*
X12700000Y-66040000D03*
X12700000Y-63500000D03*
%TD*%
%TO.C,C6*%
X25400000Y-60452000D03*
X20400000Y-60452000D03*
%TD*%
%TO.C,C15*%
X78740000Y-80772000D03*
X73740000Y-80772000D03*
%TD*%
D10*
%TO.C,U7*%
X63500000Y-7620000D03*
D11*
X63500000Y-10160000D03*
X63500000Y-12700000D03*
X63500000Y-15240000D03*
X63500000Y-17780000D03*
X63500000Y-20320000D03*
X63500000Y-22860000D03*
X63500000Y-25400000D03*
X71120000Y-25400000D03*
X71120000Y-22860000D03*
X71120000Y-20320000D03*
X71120000Y-17780000D03*
X71120000Y-15240000D03*
X71120000Y-12700000D03*
X71120000Y-10160000D03*
X71120000Y-7620000D03*
%TD*%
%TO.C,C12*%
X71120000Y-4572000D03*
X66120000Y-4572000D03*
%TD*%
D12*
%TO.C,H1*%
X5000000Y-5000000D03*
%TD*%
D13*
%TO.C,C1*%
X4572000Y-14219000D03*
D11*
X4572000Y-11719000D03*
%TD*%
%TO.C,C5*%
X25400000Y-29972000D03*
X20400000Y-29972000D03*
%TD*%
%TO.C,C4*%
X25400000Y-4572000D03*
X20400000Y-4572000D03*
%TD*%
D14*
%TO.C,J5*%
X10160000Y-88900000D03*
D15*
X10160000Y-91440000D03*
X10160000Y-93980000D03*
X10160000Y-96520000D03*
X10160000Y-99060000D03*
X10160000Y-101600000D03*
%TD*%
D11*
%TO.C,C21*%
X124460000Y-96012000D03*
X119460000Y-96012000D03*
%TD*%
D10*
%TO.C,U3*%
X63500000Y-83820000D03*
D11*
X63500000Y-86360000D03*
X63500000Y-88900000D03*
X63500000Y-91440000D03*
X63500000Y-93980000D03*
X63500000Y-96520000D03*
X63500000Y-99060000D03*
X63500000Y-101600000D03*
X63500000Y-104140000D03*
X63500000Y-106680000D03*
X63500000Y-109220000D03*
X63500000Y-111760000D03*
X63500000Y-114300000D03*
X63500000Y-116840000D03*
X63500000Y-119380000D03*
X63500000Y-121920000D03*
X78740000Y-121920000D03*
X78740000Y-119380000D03*
X78740000Y-116840000D03*
X78740000Y-114300000D03*
X78740000Y-111760000D03*
X78740000Y-109220000D03*
X78740000Y-106680000D03*
X78740000Y-104140000D03*
X78740000Y-101600000D03*
X78740000Y-99060000D03*
X78740000Y-96520000D03*
X78740000Y-93980000D03*
X78740000Y-91440000D03*
X78740000Y-88900000D03*
X78740000Y-86360000D03*
X78740000Y-83820000D03*
%TD*%
%TO.C,C9*%
X48260000Y-60325000D03*
X43260000Y-60325000D03*
%TD*%
%TO.C,C7*%
X40640000Y-4572000D03*
X35640000Y-4572000D03*
%TD*%
%TO.C,C14*%
X71120000Y-61595000D03*
X66120000Y-61595000D03*
%TD*%
D16*
%TO.C,C2*%
X15200000Y-120650000D03*
D11*
X12700000Y-120650000D03*
%TD*%
D17*
%TO.C,J8*%
X10160000Y-30480000D03*
X10160000Y-55480000D03*
D18*
X11580000Y-48520000D03*
D11*
X11580000Y-45750000D03*
X11580000Y-42980000D03*
X11580000Y-40210000D03*
X11580000Y-37440000D03*
X8740000Y-47135000D03*
X8740000Y-44365000D03*
X8740000Y-41595000D03*
X8740000Y-38825000D03*
%TD*%
D18*
%TO.C,Y1*%
X63500000Y-66040000D03*
D11*
X63500000Y-73660000D03*
X71120000Y-73660000D03*
X71120000Y-66040000D03*
%TD*%
D19*
%TO.C,D1*%
X10160000Y-17267000D03*
D20*
X2540000Y-17267000D03*
%TD*%
D11*
%TO.C,C20*%
X124460000Y-65532000D03*
X119460000Y-65532000D03*
%TD*%
%TO.C,C23*%
X12700000Y-60325000D03*
X7700000Y-60325000D03*
%TD*%
%TO.C,C18*%
X124460000Y-4572000D03*
X119460000Y-4572000D03*
%TD*%
D10*
%TO.C,U5*%
X33020000Y-63500000D03*
D11*
X33020000Y-66040000D03*
X33020000Y-68580000D03*
X33020000Y-71120000D03*
X33020000Y-73660000D03*
X33020000Y-76200000D03*
X33020000Y-78740000D03*
X33020000Y-81280000D03*
X33020000Y-83820000D03*
X33020000Y-86360000D03*
X33020000Y-88900000D03*
X33020000Y-91440000D03*
X33020000Y-93980000D03*
X33020000Y-96520000D03*
X33020000Y-99060000D03*
X33020000Y-101600000D03*
X33020000Y-104140000D03*
X33020000Y-106680000D03*
X33020000Y-109220000D03*
X33020000Y-111760000D03*
X33020000Y-114300000D03*
X33020000Y-116840000D03*
X33020000Y-119380000D03*
X33020000Y-121920000D03*
X48260000Y-121920000D03*
X48260000Y-119380000D03*
X48260000Y-116840000D03*
X48260000Y-114300000D03*
X48260000Y-111760000D03*
X48260000Y-109220000D03*
X48260000Y-106680000D03*
X48260000Y-104140000D03*
X48260000Y-101600000D03*
X48260000Y-99060000D03*
X48260000Y-96520000D03*
X48260000Y-93980000D03*
X48260000Y-91440000D03*
X48260000Y-88900000D03*
X48260000Y-86360000D03*
X48260000Y-83820000D03*
X48260000Y-81280000D03*
X48260000Y-78740000D03*
X48260000Y-76200000D03*
X48260000Y-73660000D03*
X48260000Y-71120000D03*
X48260000Y-68580000D03*
X48260000Y-66040000D03*
X48260000Y-63500000D03*
%TD*%
%TO.C,C17*%
X99060000Y-85852000D03*
X94060000Y-85852000D03*
%TD*%
D10*
%TO.C,U1*%
X83820000Y-7620000D03*
D11*
X83820000Y-10160000D03*
X83820000Y-12700000D03*
X83820000Y-15240000D03*
X83820000Y-17780000D03*
X83820000Y-20320000D03*
X83820000Y-22860000D03*
X83820000Y-25400000D03*
X83820000Y-27940000D03*
X83820000Y-30480000D03*
X83820000Y-33020000D03*
X83820000Y-35560000D03*
X83820000Y-38100000D03*
X83820000Y-40640000D03*
X83820000Y-43180000D03*
X83820000Y-45720000D03*
X83820000Y-48260000D03*
X83820000Y-50800000D03*
X83820000Y-53340000D03*
X83820000Y-55880000D03*
X83820000Y-58420000D03*
X83820000Y-60960000D03*
X83820000Y-63500000D03*
X83820000Y-66040000D03*
X99060000Y-66040000D03*
X99060000Y-63500000D03*
X99060000Y-60960000D03*
X99060000Y-58420000D03*
X99060000Y-55880000D03*
X99060000Y-53340000D03*
X99060000Y-50800000D03*
X99060000Y-48260000D03*
X99060000Y-45720000D03*
X99060000Y-43180000D03*
X99060000Y-40640000D03*
X99060000Y-38100000D03*
X99060000Y-35560000D03*
X99060000Y-33020000D03*
X99060000Y-30480000D03*
X99060000Y-27940000D03*
X99060000Y-25400000D03*
X99060000Y-22860000D03*
X99060000Y-20320000D03*
X99060000Y-17780000D03*
X99060000Y-15240000D03*
X99060000Y-12700000D03*
X99060000Y-10160000D03*
X99060000Y-7620000D03*
%TD*%
%TO.C,C8*%
X40640000Y-29972000D03*
X35640000Y-29972000D03*
%TD*%
D10*
%TO.C,U19*%
X116840000Y-68580000D03*
D11*
X116840000Y-71120000D03*
X116840000Y-73660000D03*
X116840000Y-76200000D03*
X116840000Y-78740000D03*
X116840000Y-81280000D03*
X116840000Y-83820000D03*
X116840000Y-86360000D03*
X116840000Y-88900000D03*
X116840000Y-91440000D03*
X124460000Y-91440000D03*
X124460000Y-88900000D03*
X124460000Y-86360000D03*
X124460000Y-83820000D03*
X124460000Y-81280000D03*
X124460000Y-78740000D03*
X124460000Y-76200000D03*
X124460000Y-73660000D03*
X124460000Y-71120000D03*
X124460000Y-68580000D03*
%TD*%
%TO.C,C16*%
X99060000Y-4572000D03*
X94060000Y-4572000D03*
%TD*%
D10*
%TO.C,U8*%
X48260000Y-7620000D03*
D11*
X48260000Y-10160000D03*
X48260000Y-12700000D03*
X48260000Y-15240000D03*
X48260000Y-17780000D03*
X48260000Y-20320000D03*
X48260000Y-22860000D03*
X48260000Y-25400000D03*
X55880000Y-25400000D03*
X55880000Y-22860000D03*
X55880000Y-20320000D03*
X55880000Y-17780000D03*
X55880000Y-15240000D03*
X55880000Y-12700000D03*
X55880000Y-10160000D03*
X55880000Y-7620000D03*
%TD*%
D14*
%TO.C,J2*%
X137160000Y-76200000D03*
D15*
X134620000Y-76200000D03*
X137160000Y-78740000D03*
X134620000Y-78740000D03*
X137160000Y-81280000D03*
X134620000Y-81280000D03*
X137160000Y-83820000D03*
X134620000Y-83820000D03*
X137160000Y-86360000D03*
X134620000Y-86360000D03*
X137160000Y-88900000D03*
X134620000Y-88900000D03*
X137160000Y-91440000D03*
X134620000Y-91440000D03*
X137160000Y-93980000D03*
X134620000Y-93980000D03*
X137160000Y-96520000D03*
X134620000Y-96520000D03*
X137160000Y-99060000D03*
X134620000Y-99060000D03*
X137160000Y-101600000D03*
X134620000Y-101600000D03*
X137160000Y-104140000D03*
X134620000Y-104140000D03*
X137160000Y-106680000D03*
X134620000Y-106680000D03*
X137160000Y-109220000D03*
X134620000Y-109220000D03*
X137160000Y-111760000D03*
X134620000Y-111760000D03*
X137160000Y-114300000D03*
X134620000Y-114300000D03*
X137160000Y-116840000D03*
X134620000Y-116840000D03*
X137160000Y-119380000D03*
X134620000Y-119380000D03*
X137160000Y-121920000D03*
X134620000Y-121920000D03*
X137160000Y-124460000D03*
X134620000Y-124460000D03*
%TD*%
D21*
%TO.C,J6*%
X13970000Y-110490000D03*
D22*
X7970000Y-110490000D03*
D23*
X10970000Y-115190000D03*
%TD*%
D10*
%TO.C,U9*%
X17780000Y-7620000D03*
D11*
X17780000Y-10160000D03*
X17780000Y-12700000D03*
X17780000Y-15240000D03*
X17780000Y-17780000D03*
X17780000Y-20320000D03*
X17780000Y-22860000D03*
X17780000Y-25400000D03*
X25400000Y-25400000D03*
X25400000Y-22860000D03*
X25400000Y-20320000D03*
X25400000Y-17780000D03*
X25400000Y-15240000D03*
X25400000Y-12700000D03*
X25400000Y-10160000D03*
X25400000Y-7620000D03*
%TD*%
%TO.C,C13*%
X71120000Y-29972000D03*
X66120000Y-29972000D03*
%TD*%
D14*
%TO.C,J1*%
X137160000Y-22860000D03*
D15*
X134620000Y-22860000D03*
X137160000Y-25400000D03*
X134620000Y-25400000D03*
X137160000Y-27940000D03*
X134620000Y-27940000D03*
X137160000Y-30480000D03*
X134620000Y-30480000D03*
X137160000Y-33020000D03*
X134620000Y-33020000D03*
X137160000Y-35560000D03*
X134620000Y-35560000D03*
X137160000Y-38100000D03*
X134620000Y-38100000D03*
X137160000Y-40640000D03*
X134620000Y-40640000D03*
X137160000Y-43180000D03*
X134620000Y-43180000D03*
X137160000Y-45720000D03*
X134620000Y-45720000D03*
X137160000Y-48260000D03*
X134620000Y-48260000D03*
X137160000Y-50800000D03*
X134620000Y-50800000D03*
X137160000Y-53340000D03*
X134620000Y-53340000D03*
X137160000Y-55880000D03*
X134620000Y-55880000D03*
X137160000Y-58420000D03*
X134620000Y-58420000D03*
X137160000Y-60960000D03*
X134620000Y-60960000D03*
X137160000Y-63500000D03*
X134620000Y-63500000D03*
X137160000Y-66040000D03*
X134620000Y-66040000D03*
X137160000Y-68580000D03*
X134620000Y-68580000D03*
X137160000Y-71120000D03*
X134620000Y-71120000D03*
%TD*%
D14*
%TO.C,J3*%
X154940000Y-22860000D03*
D15*
X152400000Y-22860000D03*
X154940000Y-25400000D03*
X152400000Y-25400000D03*
X154940000Y-27940000D03*
X152400000Y-27940000D03*
X154940000Y-30480000D03*
X152400000Y-30480000D03*
X154940000Y-33020000D03*
X152400000Y-33020000D03*
X154940000Y-35560000D03*
X152400000Y-35560000D03*
X154940000Y-38100000D03*
X152400000Y-38100000D03*
X154940000Y-40640000D03*
X152400000Y-40640000D03*
X154940000Y-43180000D03*
X152400000Y-43180000D03*
X154940000Y-45720000D03*
X152400000Y-45720000D03*
X154940000Y-48260000D03*
X152400000Y-48260000D03*
X154940000Y-50800000D03*
X152400000Y-50800000D03*
X154940000Y-53340000D03*
X152400000Y-53340000D03*
X154940000Y-55880000D03*
X152400000Y-55880000D03*
X154940000Y-58420000D03*
X152400000Y-58420000D03*
X154940000Y-60960000D03*
X152400000Y-60960000D03*
X154940000Y-63500000D03*
X152400000Y-63500000D03*
X154940000Y-66040000D03*
X152400000Y-66040000D03*
X154940000Y-68580000D03*
X152400000Y-68580000D03*
X154940000Y-71120000D03*
X152400000Y-71120000D03*
%TD*%
D10*
%TO.C,U2*%
X83820000Y-88900000D03*
D11*
X83820000Y-91440000D03*
X83820000Y-93980000D03*
X83820000Y-96520000D03*
X83820000Y-99060000D03*
X83820000Y-101600000D03*
X83820000Y-104140000D03*
X83820000Y-106680000D03*
X83820000Y-109220000D03*
X83820000Y-111760000D03*
X83820000Y-114300000D03*
X83820000Y-116840000D03*
X83820000Y-119380000D03*
X83820000Y-121920000D03*
X99060000Y-121920000D03*
X99060000Y-119380000D03*
X99060000Y-116840000D03*
X99060000Y-114300000D03*
X99060000Y-111760000D03*
X99060000Y-109220000D03*
X99060000Y-106680000D03*
X99060000Y-104140000D03*
X99060000Y-101600000D03*
X99060000Y-99060000D03*
X99060000Y-96520000D03*
X99060000Y-93980000D03*
X99060000Y-91440000D03*
X99060000Y-88900000D03*
%TD*%
D10*
%TO.C,U17*%
X116840000Y-7620000D03*
D11*
X116840000Y-10160000D03*
X116840000Y-12700000D03*
X116840000Y-15240000D03*
X116840000Y-17780000D03*
X116840000Y-20320000D03*
X116840000Y-22860000D03*
X116840000Y-25400000D03*
X116840000Y-27940000D03*
X116840000Y-30480000D03*
X124460000Y-30480000D03*
X124460000Y-27940000D03*
X124460000Y-25400000D03*
X124460000Y-22860000D03*
X124460000Y-20320000D03*
X124460000Y-17780000D03*
X124460000Y-15240000D03*
X124460000Y-12700000D03*
X124460000Y-10160000D03*
X124460000Y-7620000D03*
%TD*%
D10*
%TO.C,U12*%
X48260000Y-33000000D03*
D11*
X48260000Y-35540000D03*
X48260000Y-38080000D03*
X48260000Y-40620000D03*
X48260000Y-43160000D03*
X48260000Y-45700000D03*
X48260000Y-48240000D03*
X55880000Y-48240000D03*
X55880000Y-45700000D03*
X55880000Y-43160000D03*
X55880000Y-40620000D03*
X55880000Y-38080000D03*
X55880000Y-35540000D03*
X55880000Y-33000000D03*
%TD*%
D24*
%TO.C,J7*%
X15240000Y-130810000D03*
D25*
X12740000Y-130810000D03*
%TD*%
D12*
%TO.C,H4*%
X160000000Y-130000000D03*
%TD*%
D11*
%TO.C,C19*%
X124460000Y-35052000D03*
X119460000Y-35052000D03*
%TD*%
D10*
%TO.C,U6*%
X17780000Y-88900000D03*
D11*
X17780000Y-91440000D03*
X17780000Y-93980000D03*
X17780000Y-96520000D03*
X17780000Y-99060000D03*
X17780000Y-101600000D03*
X17780000Y-104140000D03*
X17780000Y-106680000D03*
X25400000Y-106680000D03*
X25400000Y-104140000D03*
X25400000Y-101600000D03*
X25400000Y-99060000D03*
X25400000Y-96520000D03*
X25400000Y-93980000D03*
X25400000Y-91440000D03*
X25400000Y-88900000D03*
%TD*%
D10*
%TO.C,U14*%
X17780000Y-63500000D03*
D11*
X17780000Y-66040000D03*
X17780000Y-68580000D03*
X17780000Y-71120000D03*
X17780000Y-73660000D03*
X17780000Y-76200000D03*
X17780000Y-78740000D03*
X25400000Y-78740000D03*
X25400000Y-76200000D03*
X25400000Y-73660000D03*
X25400000Y-71120000D03*
X25400000Y-68580000D03*
X25400000Y-66040000D03*
X25400000Y-63500000D03*
%TD*%
D10*
%TO.C,U13*%
X17780000Y-33020000D03*
D11*
X17780000Y-35560000D03*
X17780000Y-38100000D03*
X17780000Y-40640000D03*
X17780000Y-43180000D03*
X17780000Y-45720000D03*
X17780000Y-48260000D03*
X25400000Y-48260000D03*
X25400000Y-45720000D03*
X25400000Y-43180000D03*
X25400000Y-40640000D03*
X25400000Y-38100000D03*
X25400000Y-35560000D03*
X25400000Y-33020000D03*
%TD*%
%TO.C,C11*%
X55880000Y-29972000D03*
X50880000Y-29972000D03*
%TD*%
D14*
%TO.C,J4*%
X154940000Y-76200000D03*
D15*
X152400000Y-76200000D03*
X154940000Y-78740000D03*
X152400000Y-78740000D03*
X154940000Y-81280000D03*
X152400000Y-81280000D03*
X154940000Y-83820000D03*
X152400000Y-83820000D03*
X154940000Y-86360000D03*
X152400000Y-86360000D03*
X154940000Y-88900000D03*
X152400000Y-88900000D03*
X154940000Y-91440000D03*
X152400000Y-91440000D03*
X154940000Y-93980000D03*
X152400000Y-93980000D03*
X154940000Y-96520000D03*
X152400000Y-96520000D03*
X154940000Y-99060000D03*
X152400000Y-99060000D03*
X154940000Y-101600000D03*
X152400000Y-101600000D03*
X154940000Y-104140000D03*
X152400000Y-104140000D03*
X154940000Y-106680000D03*
X152400000Y-106680000D03*
X154940000Y-109220000D03*
X152400000Y-109220000D03*
X154940000Y-111760000D03*
X152400000Y-111760000D03*
X154940000Y-114300000D03*
X152400000Y-114300000D03*
X154940000Y-116840000D03*
X152400000Y-116840000D03*
X154940000Y-119380000D03*
X152400000Y-119380000D03*
X154940000Y-121920000D03*
X152400000Y-121920000D03*
X154940000Y-124460000D03*
X152400000Y-124460000D03*
%TD*%
D12*
%TO.C,H2*%
X160000000Y-5000000D03*
%TD*%
D10*
%TO.C,U11*%
X33020000Y-33020000D03*
D11*
X33020000Y-35560000D03*
X33020000Y-38100000D03*
X33020000Y-40640000D03*
X33020000Y-43180000D03*
X33020000Y-45720000D03*
X33020000Y-48260000D03*
X40640000Y-48260000D03*
X40640000Y-45720000D03*
X40640000Y-43180000D03*
X40640000Y-40640000D03*
X40640000Y-38100000D03*
X40640000Y-35560000D03*
X40640000Y-33020000D03*
%TD*%
%TO.C,C10*%
X55880000Y-4572000D03*
X50880000Y-4572000D03*
%TD*%
D10*
%TO.C,U10*%
X33020000Y-7620000D03*
D11*
X33020000Y-10160000D03*
X33020000Y-12700000D03*
X33020000Y-15240000D03*
X33020000Y-17780000D03*
X33020000Y-20320000D03*
X33020000Y-22860000D03*
X33020000Y-25400000D03*
X40640000Y-25400000D03*
X40640000Y-22860000D03*
X40640000Y-20320000D03*
X40640000Y-17780000D03*
X40640000Y-15240000D03*
X40640000Y-12700000D03*
X40640000Y-10160000D03*
X40640000Y-7620000D03*
%TD*%
D10*
%TO.C,U20*%
X116840000Y-99060000D03*
D11*
X116840000Y-101600000D03*
X116840000Y-104140000D03*
X116840000Y-106680000D03*
X116840000Y-109220000D03*
X116840000Y-111760000D03*
X116840000Y-114300000D03*
X116840000Y-116840000D03*
X116840000Y-119380000D03*
X116840000Y-121920000D03*
X124460000Y-121920000D03*
X124460000Y-119380000D03*
X124460000Y-116840000D03*
X124460000Y-114300000D03*
X124460000Y-111760000D03*
X124460000Y-109220000D03*
X124460000Y-106680000D03*
X124460000Y-104140000D03*
X124460000Y-101600000D03*
X124460000Y-99060000D03*
%TD*%
D26*
%TO.C,SW1*%
X3660000Y-20387000D03*
X10160000Y-20387000D03*
X3660000Y-24887000D03*
X10160000Y-24887000D03*
%TD*%
D11*
%TO.C,C3*%
X25400000Y-85725000D03*
X20400000Y-85725000D03*
%TD*%
D10*
%TO.C,U18*%
X116840000Y-38100000D03*
D11*
X116840000Y-40640000D03*
X116840000Y-43180000D03*
X116840000Y-45720000D03*
X116840000Y-48260000D03*
X116840000Y-50800000D03*
X116840000Y-53340000D03*
X116840000Y-55880000D03*
X116840000Y-58420000D03*
X116840000Y-60960000D03*
X124460000Y-60960000D03*
X124460000Y-58420000D03*
X124460000Y-55880000D03*
X124460000Y-53340000D03*
X124460000Y-50800000D03*
X124460000Y-48260000D03*
X124460000Y-45720000D03*
X124460000Y-43180000D03*
X124460000Y-40640000D03*
X124460000Y-38100000D03*
%TD*%
D12*
%TO.C,H3*%
X5000000Y-130000000D03*
%TD*%
D11*
%TO.C,C22*%
X15795000Y-125730000D03*
X10795000Y-125730000D03*
%TD*%
M02*
