M48
; DRILL file {KiCad 9.0.6} date 2026-04-25T10:58:28+0900
; FORMAT={-:-/ absolute / metric / decimal}
; #@! TF.CreationDate,2026-04-25T10:58:28+09:00
; #@! TF.GenerationSoftware,Kicad,Pcbnew,9.0.6
; #@! TF.FileFunction,Plated,1,2,PTH
FMAT,2
METRIC
; #@! TA.AperFunction,Plated,PTH,ViaDrill
T1C0.300
; #@! TA.AperFunction,Plated,PTH,ComponentDrill
T2C0.600
; #@! TA.AperFunction,Plated,PTH,ComponentDrill
T3C0.800
; #@! TA.AperFunction,Plated,PTH,ComponentDrill
T4C1.000
; #@! TA.AperFunction,Plated,PTH,ComponentDrill
T5C1.200
%
G90
G05
T1
X2.5Y-2.5
X2.5Y-5.0
X2.5Y-10.0
X2.5Y-15.0
X2.5Y-20.0
X2.5Y-25.0
X2.5Y-30.0
X2.5Y-35.0
X2.5Y-40.0
X2.5Y-45.0
X2.5Y-50.0
X2.5Y-55.0
X2.5Y-60.0
X2.5Y-65.0
X2.5Y-70.0
X2.5Y-75.0
X2.5Y-80.0
X2.5Y-85.0
X2.5Y-90.0
X2.5Y-95.0
X2.5Y-100.0
X2.5Y-105.0
X2.5Y-110.0
X2.5Y-115.0
X2.5Y-120.0
X2.5Y-125.0
X2.5Y-130.0
X2.5Y-132.5
X5.0Y-2.5
X5.0Y-5.0
X5.0Y-10.0
X5.0Y-15.0
X5.0Y-20.0
X9.525Y-91.44
X10.0Y-5.0
X10.0Y-10.0
X10.0Y-15.0
X10.0Y-20.0
X10.0Y-35.0
X10.0Y-40.0
X10.0Y-45.0
X10.0Y-55.0
X10.0Y-60.0
X10.0Y-65.0
X10.0Y-75.0
X10.0Y-80.0
X10.0Y-95.0
X10.0Y-100.0
X10.0Y-105.0
X10.0Y-110.0
X10.0Y-115.0
X10.0Y-120.0
X10.0Y-125.0
X10.0Y-130.0
X11.43Y-91.44
X11.43Y-101.6
X11.43Y-104.14
X12.065Y-64.77
X12.065Y-89.535
X12.7Y-69.215
X12.7Y-102.87
X13.335Y-62.23
X13.335Y-97.79
X13.335Y-118.745
X13.335Y-120.015
X13.97Y-59.69
X13.97Y-86.36
X13.97Y-101.6
X13.97Y-104.14
X14.605Y-66.04
X14.605Y-78.74
X14.605Y-81.915
X14.605Y-87.63
X14.605Y-91.44
X14.605Y-96.52
X15.0Y-5.0
X15.0Y-10.0
X15.0Y-15.0
X15.0Y-20.0
X15.0Y-35.0
X15.0Y-40.0
X15.0Y-45.0
X15.0Y-55.0
X15.0Y-125.0
X15.24Y-80.264
X15.24Y-88.9
X15.24Y-119.38
X15.875Y-58.42
X15.875Y-68.58
X15.875Y-81.28
X15.875Y-93.98
X16.256Y-57.404
X16.51Y-60.96
X16.51Y-69.85
X17.145Y-63.5
X17.145Y-71.12
X17.272Y-80.772
X17.78Y-118.11
X18.288Y-57.404
X18.415Y-93.98
X18.415Y-106.68
X18.796Y-69.596
X19.05Y-86.36
X19.05Y-91.44
X19.05Y-111.76
X19.05Y-118.11
X20.0Y-5.0
X20.0Y-10.0
X20.0Y-15.0
X20.0Y-20.0
X20.0Y-35.0
X20.0Y-40.0
X20.0Y-45.0
X20.0Y-55.0
X20.0Y-125.0
X20.0Y-130.0
X20.32Y-80.772
X21.59Y-83.82
X21.59Y-109.22
X21.59Y-118.11
X21.844Y-58.42
X21.844Y-72.136
X22.86Y-99.06
X23.368Y-72.136
X23.495Y-118.745
X23.876Y-59.944
X24.099Y-74.93
X24.13Y-114.3
X24.13Y-130.175
X24.7Y-72.39
X24.7Y-119.38
X25.0Y-5.0
X25.0Y-10.0
X25.0Y-15.0
X25.0Y-20.0
X25.0Y-35.0
X25.0Y-40.0
X25.0Y-45.0
X25.4Y-71.12
X26.1Y-86.36
X26.1Y-93.98
X26.416Y-76.2
X26.416Y-79.248
X26.67Y-107.95
X26.67Y-110.49
X26.67Y-115.57
X29.21Y-87.63
X29.21Y-120.142
X29.464Y-76.2
X29.464Y-79.756
X29.845Y-95.25
X29.845Y-118.11
X30.0Y-5.0
X30.0Y-10.0
X30.0Y-15.0
X30.0Y-20.0
X30.0Y-35.0
X30.0Y-40.0
X30.0Y-45.0
X30.0Y-55.0
X30.0Y-60.0
X30.0Y-65.0
X30.48Y-69.215
X30.48Y-91.44
X32.385Y-111.125
X32.385Y-117.475
X32.385Y-121.285
X32.385Y-130.175
X33.02Y-92.71
X34.036Y-75.692
X34.036Y-79.756
X34.036Y-99.06
X34.036Y-101.6
X34.036Y-108.204
X34.29Y-111.125
X34.29Y-117.475
X34.29Y-121.285
X35.0Y-5.0
X35.0Y-10.0
X35.0Y-15.0
X35.0Y-20.0
X35.0Y-35.0
X35.0Y-40.0
X35.0Y-45.0
X35.0Y-55.0
X35.0Y-60.0
X35.0Y-65.0
X35.0Y-125.0
X35.0Y-130.0
X36.83Y-120.65
X37.465Y-50.8
X37.465Y-114.935
X38.1Y-49.53
X38.1Y-116.205
X38.1Y-117.475
X39.116Y-86.868
X39.116Y-91.44
X39.116Y-96.52
X39.116Y-99.06
X39.116Y-101.092
X39.116Y-103.632
X39.116Y-108.204
X39.37Y-50.8
X39.37Y-85.725
X39.37Y-111.76
X40.0Y-5.0
X40.0Y-10.0
X40.0Y-15.0
X40.0Y-20.0
X40.0Y-125.0
X40.0Y-130.0
X40.005Y-22.86
X40.005Y-45.72
X40.005Y-109.22
X40.64Y-24.13
X40.64Y-43.18
X40.64Y-111.125
X40.64Y-114.3
X41.148Y-116.332
X41.275Y-25.4
X41.275Y-40.64
X41.275Y-113.03
X41.91Y-26.67
X41.91Y-44.45
X41.91Y-114.935
X41.91Y-120.65
X42.545Y-29.21
X42.545Y-47.625
X42.545Y-116.84
X43.18Y-33.02
X43.18Y-53.34
X43.18Y-121.92
X43.815Y-31.75
X43.815Y-52.705
X43.815Y-120.015
X44.45Y-30.48
X44.45Y-51.435
X44.45Y-118.745
X44.45Y-121.285
X45.0Y-5.0
X45.0Y-10.0
X45.0Y-15.0
X45.0Y-20.0
X45.0Y-25.0
X45.0Y-125.0
X45.0Y-130.0
X45.72Y-30.48
X45.72Y-35.56
X45.72Y-41.91
X45.72Y-46.355
X45.72Y-48.895
X45.72Y-54.61
X45.72Y-60.325
X45.72Y-65.405
X45.72Y-67.945
X45.72Y-74.295
X45.72Y-76.2
X45.72Y-78.105
X45.72Y-80.264
X45.72Y-86.868
X45.72Y-91.44
X45.72Y-99.06
X45.72Y-103.505
X45.72Y-107.95
X45.72Y-112.268
X45.72Y-113.792
X45.72Y-115.824
X45.72Y-117.348
X46.355Y-96.52
X46.99Y-46.99
X46.99Y-79.375
X46.99Y-100.965
X46.99Y-103.505
X47.625Y-52.07
X47.625Y-97.79
X48.26Y-38.75
X48.26Y-102.235
X49.53Y-54.61
X49.53Y-65.405
X49.53Y-67.945
X49.53Y-74.295
X49.53Y-76.2
X49.53Y-103.505
X49.53Y-107.95
X49.53Y-121.285
X49.53Y-130.175
X49.784Y-112.268
X49.784Y-113.792
X49.784Y-115.824
X49.784Y-117.348
X50.0Y-5.0
X50.0Y-10.0
X50.0Y-15.0
X50.0Y-20.0
X50.0Y-25.0
X50.0Y-30.0
X50.0Y-35.0
X50.0Y-60.0
X50.8Y-48.895
X50.8Y-77.47
X50.8Y-110.49
X52.07Y-67.945
X52.07Y-74.93
X52.07Y-76.2
X52.07Y-125.73
X52.705Y-62.23
X52.705Y-74.295
X52.705Y-125.095
X53.34Y-54.61
X53.34Y-67.945
X53.34Y-72.39
X53.34Y-124.46
X55.0Y-2.5
X55.0Y-5.0
X55.0Y-10.0
X55.0Y-15.0
X55.0Y-20.0
X55.0Y-25.0
X55.0Y-55.0
X55.0Y-60.0
X55.88Y-61.595
X55.88Y-65.405
X55.88Y-81.28
X55.88Y-94.615
X56.408Y-70.378
X56.515Y-83.185
X56.515Y-85.725
X56.599Y-82.389
X57.15Y-39.37
X57.15Y-84.455
X57.15Y-88.9
X57.785Y-86.36
X57.785Y-91.44
X57.785Y-95.885
X57.785Y-105.41
X57.912Y-73.66
X57.912Y-79.756
X58.42Y-88.265
X58.42Y-92.71
X58.42Y-97.155
X58.42Y-110.49
X59.055Y-87.63
X59.055Y-92.075
X59.055Y-99.06
X59.055Y-106.68
X59.436Y-76.2
X59.436Y-80.264
X59.69Y-56.515
X59.69Y-85.09
X59.69Y-93.98
X59.69Y-100.965
X59.69Y-104.14
X60.0Y-15.0
X60.0Y-60.0
X60.0Y-65.0
X60.325Y-49.53
X60.325Y-77.47
X60.325Y-102.235
X60.96Y-76.2
X60.96Y-82.55
X60.96Y-103.505
X61.595Y-39.37
X61.595Y-41.91
X61.595Y-78.74
X61.595Y-104.775
X62.23Y-76.2
X62.23Y-107.315
X63.5Y-96.52
X64.77Y-53.34
X64.77Y-60.325
X64.77Y-96.52
X65.0Y-2.5
X65.0Y-5.0
X65.0Y-10.0
X65.0Y-20.0
X65.0Y-25.0
X65.0Y-65.0
X65.405Y-48.26
X65.405Y-60.96
X66.675Y-59.055
X67.31Y-101.6
X67.31Y-120.015
X67.564Y-123.444
X67.945Y-95.885
X69.215Y-119.38
X69.596Y-59.436
X69.85Y-57.15
X70.0Y-2.5
X70.0Y-5.0
X70.0Y-10.0
X70.0Y-30.0
X70.0Y-35.0
X70.0Y-65.0
X70.0Y-130.0
X71.755Y-95.885
X72.39Y-54.61
X72.39Y-57.15
X72.644Y-59.436
X73.025Y-78.74
X73.025Y-106.68
X73.025Y-124.46
X74.295Y-96.52
X74.295Y-124.46
X74.676Y-39.116
X75.0Y-15.0
X75.0Y-20.0
X75.0Y-35.0
X75.0Y-65.0
X75.0Y-130.0
X77.47Y-48.26
X77.47Y-61.595
X77.47Y-96.52
X77.47Y-124.46
X78.105Y-42.545
X78.105Y-53.34
X78.105Y-66.675
X79.248Y-64.516
X79.375Y-41.275
X80.0Y-2.5
X80.0Y-5.0
X80.0Y-10.0
X80.0Y-15.0
X80.0Y-20.0
X80.0Y-130.0
X80.01Y-57.785
X80.01Y-80.01
X80.01Y-107.95
X80.01Y-124.46
X80.645Y-82.55
X80.645Y-110.49
X81.28Y-83.82
X81.28Y-111.76
X81.915Y-86.36
X81.915Y-114.3
X82.296Y-23.876
X82.296Y-59.436
X82.296Y-122.936
X82.55Y-57.15
X82.55Y-88.9
X82.55Y-116.84
X84.455Y-96.52
X84.455Y-124.46
X85.0Y-2.5
X85.0Y-5.0
X85.0Y-10.0
X85.0Y-15.0
X85.0Y-20.0
X85.0Y-65.0
X85.0Y-130.0
X85.09Y-54.61
X85.725Y-58.42
X85.725Y-78.74
X85.725Y-106.68
X85.725Y-125.095
X86.36Y-42.545
X86.36Y-48.26
X86.75Y-44.1
X86.995Y-60.96
X86.995Y-96.52
X87.63Y-60.325
X90.0Y-25.0
X90.0Y-30.0
X90.0Y-35.0
X90.0Y-40.0
X90.0Y-130.0
X90.17Y-96.52
X90.17Y-125.095
X90.74Y-67.31
X90.805Y-50.8
X91.948Y-64.516
X92.075Y-48.895
X92.075Y-56.515
X92.075Y-60.325
X92.456Y-43.18
X92.71Y-91.44
X92.71Y-119.38
X92.71Y-125.095
X93.345Y-90.17
X93.345Y-118.11
X93.98Y-44.45
X93.98Y-57.15
X93.98Y-66.548
X93.98Y-87.63
X93.98Y-115.57
X94.488Y-122.936
X94.615Y-85.09
X94.615Y-113.03
X95.0Y-2.5
X95.0Y-5.0
X95.0Y-10.0
X95.0Y-15.0
X95.0Y-20.0
X95.0Y-25.0
X95.0Y-30.0
X95.0Y-35.0
X95.0Y-130.0
X95.25Y-45.72
X95.25Y-67.945
X95.25Y-93.98
X95.25Y-121.92
X96.52Y-61.595
X96.52Y-96.52
X97.5Y-2.5
X97.5Y-5.0
X97.5Y-130.0
X97.79Y-78.74
X97.79Y-106.68
X97.79Y-125.73
X98.5Y-56.85
X99.06Y-71.755
X99.06Y-95.25
X99.06Y-99.695
X99.06Y-124.46
T2
X35.56Y-66.802
X35.56Y-68.58
X35.56Y-70.358
X35.56Y-72.136
X35.56Y-73.914
X35.56Y-75.692
X35.56Y-77.47
X35.56Y-79.248
X35.56Y-81.026
X35.56Y-82.804
X35.56Y-84.582
X35.56Y-86.36
X35.56Y-88.138
X35.56Y-89.916
X35.56Y-91.694
X35.56Y-93.472
X35.56Y-95.25
X35.56Y-97.028
X35.56Y-98.806
X35.56Y-100.584
X35.56Y-102.362
X35.56Y-104.14
X35.56Y-105.918
X35.56Y-107.696
X35.56Y-109.474
X35.56Y-111.252
X35.56Y-113.03
X35.56Y-114.808
X35.56Y-116.586
X35.56Y-118.364
X35.56Y-120.142
X35.56Y-121.92
X54.61Y-66.802
X54.61Y-68.58
X54.61Y-70.358
X54.61Y-72.136
X54.61Y-73.914
X54.61Y-75.692
X54.61Y-77.47
X54.61Y-79.248
X54.61Y-81.026
X54.61Y-82.804
X54.61Y-84.582
X54.61Y-86.36
X54.61Y-88.138
X54.61Y-89.916
X54.61Y-91.694
X54.61Y-93.472
X54.61Y-95.25
X54.61Y-97.028
X54.61Y-98.806
X54.61Y-100.584
X54.61Y-102.362
X54.61Y-104.14
X54.61Y-105.918
X54.61Y-107.696
X54.61Y-109.474
X54.61Y-111.252
X54.61Y-113.03
X54.61Y-114.808
X54.61Y-116.586
X54.61Y-118.364
X54.61Y-120.142
X54.61Y-121.92
T3
X15.24Y-129.58
X15.24Y-132.08
X20.32Y-58.42
X20.32Y-60.96
X20.32Y-63.5
X20.32Y-66.04
X20.32Y-68.58
X20.32Y-71.12
X20.32Y-73.66
X20.32Y-76.2
X20.32Y-83.82
X20.32Y-86.36
X20.32Y-88.9
X20.32Y-91.44
X20.32Y-93.98
X20.32Y-96.52
X20.32Y-99.06
X20.32Y-106.68
X20.32Y-109.22
X20.32Y-111.76
X20.32Y-114.3
X20.32Y-116.84
X20.32Y-119.38
X20.32Y-121.92
X20.828Y-127.08
X20.828Y-132.08
X22.86Y-55.245
X22.94Y-80.645
X22.94Y-103.505
X27.86Y-55.245
X27.94Y-58.42
X27.94Y-60.96
X27.94Y-63.5
X27.94Y-66.04
X27.94Y-68.58
X27.94Y-71.12
X27.94Y-73.66
X27.94Y-76.2
X27.94Y-80.645
X27.94Y-83.82
X27.94Y-86.36
X27.94Y-88.9
X27.94Y-91.44
X27.94Y-93.98
X27.94Y-96.52
X27.94Y-99.06
X27.94Y-103.505
X27.94Y-106.68
X27.94Y-109.22
X27.94Y-111.76
X27.94Y-114.3
X27.94Y-116.84
X27.94Y-119.38
X27.94Y-121.92
X45.8Y-63.5
X50.8Y-63.5
X52.25Y-28.59
X52.25Y-38.75
X52.27Y-59.055
X55.245Y-33.735
X55.245Y-38.735
X57.15Y-59.055
X58.0Y-26.995
X58.0Y-37.155
X59.69Y-19.36
X59.69Y-22.86
X60.786Y-28.194
X63.5Y-40.64
X63.5Y-43.18
X63.5Y-45.72
X63.5Y-48.26
X63.5Y-50.8
X63.5Y-53.34
X63.5Y-55.88
X63.5Y-58.42
X63.5Y-73.66
X63.5Y-76.2
X63.5Y-78.74
X63.5Y-81.28
X63.5Y-83.82
X63.5Y-86.36
X63.5Y-88.9
X63.5Y-91.44
X63.5Y-93.98
X63.5Y-101.6
X63.5Y-104.14
X63.5Y-106.68
X63.5Y-109.22
X63.5Y-111.76
X63.5Y-114.3
X63.5Y-116.84
X63.5Y-119.38
X63.5Y-121.92
X65.786Y-28.194
X66.12Y-37.465
X66.12Y-70.485
X66.12Y-98.425
X66.675Y-15.24
X66.675Y-25.4
X68.58Y-30.48
X68.58Y-32.98
X69.85Y-15.32
X69.85Y-20.32
X71.12Y-37.465
X71.12Y-40.64
X71.12Y-43.18
X71.12Y-45.72
X71.12Y-48.26
X71.12Y-50.8
X71.12Y-53.34
X71.12Y-55.88
X71.12Y-58.42
X71.12Y-70.485
X71.12Y-73.66
X71.12Y-76.2
X71.12Y-78.74
X71.12Y-81.28
X71.12Y-83.82
X71.12Y-86.36
X71.12Y-88.9
X71.12Y-91.44
X71.12Y-93.98
X71.12Y-98.425
X71.12Y-101.6
X71.12Y-104.14
X71.12Y-106.68
X71.12Y-109.22
X71.12Y-111.76
X71.12Y-114.3
X71.12Y-116.84
X71.12Y-119.38
X71.12Y-121.92
X73.025Y-20.32
X73.025Y-30.48
X76.2Y-25.4
X76.2Y-27.94
X76.2Y-30.48
X76.2Y-33.02
X76.2Y-40.64
X76.2Y-43.18
X76.2Y-45.72
X76.2Y-48.26
X76.2Y-50.8
X76.2Y-53.34
X76.2Y-55.88
X76.2Y-58.42
X76.2Y-73.66
X76.2Y-76.2
X76.2Y-78.74
X76.2Y-81.28
X76.2Y-83.82
X76.2Y-86.36
X76.2Y-88.9
X76.2Y-91.44
X76.2Y-93.98
X76.2Y-101.6
X76.2Y-104.14
X76.2Y-106.68
X76.2Y-109.22
X76.2Y-111.76
X76.2Y-114.3
X76.2Y-116.84
X76.2Y-119.38
X76.2Y-121.92
X78.82Y-22.225
X78.82Y-37.465
X78.82Y-70.485
X78.82Y-98.425
X83.82Y-22.225
X83.82Y-25.4
X83.82Y-27.94
X83.82Y-30.48
X83.82Y-33.02
X83.82Y-37.465
X83.82Y-40.64
X83.82Y-43.18
X83.82Y-45.72
X83.82Y-48.26
X83.82Y-50.8
X83.82Y-53.34
X83.82Y-55.88
X83.82Y-58.42
X83.82Y-70.485
X83.82Y-73.66
X83.82Y-76.2
X83.82Y-78.74
X83.82Y-81.28
X83.82Y-83.82
X83.82Y-86.36
X83.82Y-88.9
X83.82Y-91.44
X83.82Y-93.98
X83.82Y-98.425
X83.82Y-101.6
X83.82Y-104.14
X83.82Y-106.68
X83.82Y-109.22
X83.82Y-111.76
X83.82Y-114.3
X83.82Y-116.84
X83.82Y-119.38
X83.82Y-121.92
X86.995Y-15.24
X86.995Y-25.4
X88.9Y-43.18
X88.9Y-45.72
X88.9Y-48.26
X88.9Y-50.8
X88.9Y-53.34
X88.9Y-55.88
X88.9Y-58.42
X88.9Y-73.66
X88.9Y-76.2
X88.9Y-78.74
X88.9Y-81.28
X88.9Y-83.82
X88.9Y-86.36
X88.9Y-88.9
X88.9Y-91.44
X88.9Y-93.98
X88.9Y-101.6
X88.9Y-104.14
X88.9Y-106.68
X88.9Y-109.22
X88.9Y-111.76
X88.9Y-114.3
X88.9Y-116.84
X88.9Y-119.38
X88.9Y-121.92
X90.17Y-15.24
X90.17Y-20.24
X91.52Y-40.005
X91.52Y-70.485
X91.52Y-98.425
X93.345Y-20.32
X93.345Y-30.48
X96.52Y-40.005
X96.52Y-43.18
X96.52Y-45.72
X96.52Y-48.26
X96.52Y-50.8
X96.52Y-53.34
X96.52Y-55.88
X96.52Y-58.42
X96.52Y-70.485
X96.52Y-73.66
X96.52Y-76.2
X96.52Y-78.74
X96.52Y-81.28
X96.52Y-83.82
X96.52Y-86.36
X96.52Y-88.9
X96.52Y-91.44
X96.52Y-93.98
X96.52Y-98.425
X96.52Y-101.6
X96.52Y-104.14
X96.52Y-106.68
X96.52Y-109.22
X96.52Y-111.76
X96.52Y-114.3
X96.52Y-116.84
X96.52Y-119.38
X96.52Y-121.92
T4
X5.08Y-22.86
X5.08Y-25.4
X5.08Y-27.94
X5.08Y-30.48
X5.08Y-33.02
X5.08Y-35.56
X5.08Y-38.1
X5.08Y-40.64
X5.08Y-43.18
X5.08Y-45.72
X5.08Y-48.26
X5.08Y-50.8
X5.08Y-53.34
X5.08Y-55.88
X5.08Y-58.42
X5.08Y-60.96
X5.08Y-63.5
X5.08Y-66.04
X5.08Y-68.58
X5.08Y-71.12
X5.08Y-76.2
X5.08Y-78.74
X5.08Y-81.28
X5.08Y-83.82
X5.08Y-86.36
X5.08Y-88.9
X5.08Y-91.44
X5.08Y-93.98
X5.08Y-96.52
X5.08Y-99.06
X5.08Y-101.6
X5.08Y-104.14
X5.08Y-106.68
X5.08Y-109.22
X5.08Y-111.76
X5.08Y-114.3
X5.08Y-116.84
X5.08Y-119.38
X5.08Y-121.92
X5.08Y-124.46
X7.62Y-22.86
X7.62Y-25.4
X7.62Y-27.94
X7.62Y-30.48
X7.62Y-33.02
X7.62Y-35.56
X7.62Y-38.1
X7.62Y-40.64
X7.62Y-43.18
X7.62Y-45.72
X7.62Y-48.26
X7.62Y-50.8
X7.62Y-53.34
X7.62Y-55.88
X7.62Y-58.42
X7.62Y-60.96
X7.62Y-63.5
X7.62Y-66.04
X7.62Y-68.58
X7.62Y-71.12
X7.62Y-76.2
X7.62Y-78.74
X7.62Y-81.28
X7.62Y-83.82
X7.62Y-86.36
X7.62Y-88.9
X7.62Y-91.44
X7.62Y-93.98
X7.62Y-96.52
X7.62Y-99.06
X7.62Y-101.6
X7.62Y-104.14
X7.62Y-106.68
X7.62Y-109.22
X7.62Y-111.76
X7.62Y-114.3
X7.62Y-116.84
X7.62Y-119.38
X7.62Y-121.92
X7.62Y-124.46
T3
G00X60.0Y-8.85
M15
G01X60.0Y-7.15
M16
G05
G00X75.0Y-8.85
M15
G01X75.0Y-7.15
M16
G05
G00X90.0Y-8.85
M15
G01X90.0Y-7.15
M16
G05
T5
G00X59.35Y-3.5
M15
G01X60.65Y-3.5
M16
G05
G00X74.35Y-3.5
M15
G01X75.65Y-3.5
M16
G05
G00X89.35Y-3.5
M15
G01X90.65Y-3.5
M16
G05
M30
