%TF.GenerationSoftware,KiCad,Pcbnew,9.0.6*%
%TF.CreationDate,2026-04-25T10:58:23+09:00*%
%TF.ProjectId,V9938-board,56393933-382d-4626-9f61-72642e6b6963,rev?*%
%TF.SameCoordinates,Original*%
%TF.FileFunction,Soldermask,Top*%
%TF.FilePolarity,Negative*%
%FSLAX46Y46*%
G04 Gerber Fmt 4.6, Leading zero omitted, Abs format (unit mm)*
G04 Created by KiCad (PCBNEW 9.0.6) date 2026-04-25 10:58:23*
%MOMM*%
%LPD*%
G01*
G04 APERTURE LIST*
G04 Aperture macros list*
%AMRoundRect*
0 Rectangle with rounded corners*
0 $1 Rounding radius*
0 $2 $3 $4 $5 $6 $7 $8 $9 X,Y pos of 4 corners*
0 Add a 4 corners polygon primitive as box body*
4,1,4,$2,$3,$4,$5,$6,$7,$8,$9,$2,$3,0*
0 Add four circle primitives for the rounded corners*
1,1,$1+$1,$2,$3*
1,1,$1+$1,$4,$5*
1,1,$1+$1,$6,$7*
1,1,$1+$1,$8,$9*
0 Add four rect primitives between the rounded corners*
20,1,$1+$1,$2,$3,$4,$5,0*
20,1,$1+$1,$4,$5,$6,$7,0*
20,1,$1+$1,$6,$7,$8,$9,0*
20,1,$1+$1,$8,$9,$2,$3,0*%
G04 Aperture macros list end*
%ADD10C,1.600000*%
%ADD11RoundRect,0.225000X0.225000X0.250000X-0.225000X0.250000X-0.225000X-0.250000X0.225000X-0.250000X0*%
%ADD12RoundRect,0.225000X-0.225000X-0.250000X0.225000X-0.250000X0.225000X0.250000X-0.225000X0.250000X0*%
%ADD13C,1.500000*%
%ADD14RoundRect,0.150000X-0.512500X-0.150000X0.512500X-0.150000X0.512500X0.150000X-0.512500X0.150000X0*%
%ADD15RoundRect,0.250000X-0.550000X-0.550000X0.550000X-0.550000X0.550000X0.550000X-0.550000X0.550000X0*%
%ADD16RoundRect,0.375000X-2.125000X-0.875000X2.125000X-0.875000X2.125000X0.875000X-2.125000X0.875000X0*%
%ADD17RoundRect,0.375000X0.875000X-1.625000X0.875000X1.625000X-0.875000X1.625000X-0.875000X-1.625000X0*%
%ADD18RoundRect,0.200000X-0.200000X-0.275000X0.200000X-0.275000X0.200000X0.275000X-0.200000X0.275000X0*%
%ADD19RoundRect,0.200000X-0.275000X0.200000X-0.275000X-0.200000X0.275000X-0.200000X0.275000X0.200000X0*%
%ADD20R,1.700000X1.700000*%
%ADD21C,1.700000*%
%ADD22RoundRect,0.250000X0.550000X-0.550000X0.550000X0.550000X-0.550000X0.550000X-0.550000X-0.550000X0*%
%ADD23C,1.000000*%
G04 APERTURE END LIST*
D10*
%TO.C,C24*%
X65786000Y-28194000D03*
X60786000Y-28194000D03*
%TD*%
%TO.C,C23*%
X20828000Y-132080000D03*
X20828000Y-127080000D03*
%TD*%
D11*
%TO.C,C21*%
X50520000Y-55245000D03*
X52070000Y-55245000D03*
%TD*%
D12*
%TO.C,C22*%
X58560000Y-55245000D03*
X57010000Y-55245000D03*
%TD*%
D13*
%TO.C,Y1*%
X52270000Y-59055000D03*
X57150000Y-59055000D03*
%TD*%
D10*
%TO.C,C15*%
X66120000Y-37465000D03*
X71120000Y-37465000D03*
%TD*%
D14*
%TO.C,U4*%
X64770000Y-30490266D03*
X64770000Y-31440266D03*
X64770000Y-32390266D03*
X62495000Y-32390266D03*
X62495000Y-31440266D03*
X62495000Y-30490266D03*
%TD*%
D15*
%TO.C,U15*%
X76200000Y-25400000D03*
D10*
X76200000Y-27940000D03*
X76200000Y-30480000D03*
X76200000Y-33020000D03*
X83820000Y-33020000D03*
X83820000Y-30480000D03*
X83820000Y-27940000D03*
X83820000Y-25400000D03*
%TD*%
%TO.C,R10*%
X93345000Y-20320000D03*
X93345000Y-30480000D03*
%TD*%
%TO.C,R9*%
X86995000Y-25400000D03*
X86995000Y-15240000D03*
%TD*%
%TO.C,R8*%
X73025000Y-20320000D03*
X73025000Y-30480000D03*
%TD*%
%TO.C,R7*%
X66675000Y-25400000D03*
X66675000Y-15240000D03*
%TD*%
%TO.C,R6*%
X52250000Y-38750000D03*
X52250000Y-28590000D03*
%TD*%
%TO.C,R5*%
X58000000Y-37155266D03*
X58000000Y-26995266D03*
%TD*%
%TO.C,C9*%
X91520000Y-70485000D03*
X96520000Y-70485000D03*
%TD*%
%TO.C,C11*%
X78820000Y-98425000D03*
X83820000Y-98425000D03*
%TD*%
%TO.C,C19*%
X69850000Y-15320000D03*
X69850000Y-20320000D03*
%TD*%
D16*
%TO.C,J1*%
X60000000Y-3500000D03*
D17*
X60000000Y-8000000D03*
%TD*%
D10*
%TO.C,C7*%
X66120000Y-70485000D03*
X71120000Y-70485000D03*
%TD*%
%TO.C,U13*%
X96520000Y-101600000D03*
X96520000Y-104140000D03*
X96520000Y-106680000D03*
X96520000Y-109220000D03*
X96520000Y-111760000D03*
X96520000Y-114300000D03*
X96520000Y-116840000D03*
X96520000Y-119380000D03*
X96520000Y-121920000D03*
X88900000Y-121920000D03*
X88900000Y-119380000D03*
X88900000Y-116840000D03*
X88900000Y-114300000D03*
X88900000Y-111760000D03*
X88900000Y-109220000D03*
X88900000Y-106680000D03*
X88900000Y-104140000D03*
D15*
X88900000Y-101600000D03*
%TD*%
D18*
%TO.C,R1*%
X16765000Y-83820000D03*
X18415000Y-83820000D03*
%TD*%
D16*
%TO.C,J5*%
X90000000Y-3500000D03*
D17*
X90000000Y-8000000D03*
%TD*%
D10*
%TO.C,C18*%
X83820000Y-22225000D03*
X78820000Y-22225000D03*
%TD*%
D15*
%TO.C,U12*%
X76200000Y-101600000D03*
D10*
X76200000Y-104140000D03*
X76200000Y-106680000D03*
X76200000Y-109220000D03*
X76200000Y-111760000D03*
X76200000Y-114300000D03*
X76200000Y-116840000D03*
X76200000Y-119380000D03*
X76200000Y-121920000D03*
X83820000Y-121920000D03*
X83820000Y-119380000D03*
X83820000Y-116840000D03*
X83820000Y-114300000D03*
X83820000Y-111760000D03*
X83820000Y-109220000D03*
X83820000Y-106680000D03*
X83820000Y-104140000D03*
X83820000Y-101600000D03*
%TD*%
D19*
%TO.C,R11*%
X86750000Y-44100000D03*
X86750000Y-45750000D03*
%TD*%
D15*
%TO.C,U11*%
X63500000Y-101600000D03*
D10*
X63500000Y-104140000D03*
X63500000Y-106680000D03*
X63500000Y-109220000D03*
X63500000Y-111760000D03*
X63500000Y-114300000D03*
X63500000Y-116840000D03*
X63500000Y-119380000D03*
X63500000Y-121920000D03*
X71120000Y-121920000D03*
X71120000Y-119380000D03*
X71120000Y-116840000D03*
X71120000Y-114300000D03*
X71120000Y-111760000D03*
X71120000Y-109220000D03*
X71120000Y-106680000D03*
X71120000Y-104140000D03*
X71120000Y-101600000D03*
%TD*%
D16*
%TO.C,J4*%
X75000000Y-3500000D03*
D17*
X75000000Y-8000000D03*
%TD*%
D15*
%TO.C,U6*%
X63500000Y-40640000D03*
D10*
X63500000Y-43180000D03*
X63500000Y-45720000D03*
X63500000Y-48260000D03*
X63500000Y-50800000D03*
X63500000Y-53340000D03*
X63500000Y-55880000D03*
X63500000Y-58420000D03*
X71120000Y-58420000D03*
X71120000Y-55880000D03*
X71120000Y-53340000D03*
X71120000Y-50800000D03*
X71120000Y-48260000D03*
X71120000Y-45720000D03*
X71120000Y-43180000D03*
X71120000Y-40640000D03*
%TD*%
%TO.C,C6*%
X50800000Y-63500000D03*
X45800000Y-63500000D03*
%TD*%
D18*
%TO.C,R2*%
X31370000Y-109474000D03*
X33020000Y-109474000D03*
%TD*%
D10*
%TO.C,C10*%
X66120000Y-98425000D03*
X71120000Y-98425000D03*
%TD*%
D19*
%TO.C,R12*%
X98500000Y-56850000D03*
X98500000Y-58500000D03*
%TD*%
D18*
%TO.C,R3*%
X16765000Y-116840000D03*
X18415000Y-116840000D03*
%TD*%
D15*
%TO.C,U9*%
X76200000Y-73660000D03*
D10*
X76200000Y-76200000D03*
X76200000Y-78740000D03*
X76200000Y-81280000D03*
X76200000Y-83820000D03*
X76200000Y-86360000D03*
X76200000Y-88900000D03*
X76200000Y-91440000D03*
X76200000Y-93980000D03*
X83820000Y-93980000D03*
X83820000Y-91440000D03*
X83820000Y-88900000D03*
X83820000Y-86360000D03*
X83820000Y-83820000D03*
X83820000Y-81280000D03*
X83820000Y-78740000D03*
X83820000Y-76200000D03*
X83820000Y-73660000D03*
%TD*%
D18*
%TO.C,R4*%
X31370000Y-70358000D03*
X33020000Y-70358000D03*
%TD*%
D15*
%TO.C,U8*%
X63500000Y-73660000D03*
D10*
X63500000Y-76200000D03*
X63500000Y-78740000D03*
X63500000Y-81280000D03*
X63500000Y-83820000D03*
X63500000Y-86360000D03*
X63500000Y-88900000D03*
X63500000Y-91440000D03*
X63500000Y-93980000D03*
X71120000Y-93980000D03*
X71120000Y-91440000D03*
X71120000Y-88900000D03*
X71120000Y-86360000D03*
X71120000Y-83820000D03*
X71120000Y-81280000D03*
X71120000Y-78740000D03*
X71120000Y-76200000D03*
X71120000Y-73660000D03*
%TD*%
D15*
%TO.C,U7*%
X76200000Y-40640000D03*
D10*
X76200000Y-43180000D03*
X76200000Y-45720000D03*
X76200000Y-48260000D03*
X76200000Y-50800000D03*
X76200000Y-53340000D03*
X76200000Y-55880000D03*
X76200000Y-58420000D03*
X83820000Y-58420000D03*
X83820000Y-55880000D03*
X83820000Y-53340000D03*
X83820000Y-50800000D03*
X83820000Y-48260000D03*
X83820000Y-45720000D03*
X83820000Y-43180000D03*
X83820000Y-40640000D03*
%TD*%
%TO.C,C14*%
X27940000Y-103505000D03*
X22940000Y-103505000D03*
%TD*%
D15*
%TO.C,U2*%
X20320000Y-106680000D03*
D10*
X20320000Y-109220000D03*
X20320000Y-111760000D03*
X20320000Y-114300000D03*
X20320000Y-116840000D03*
X20320000Y-119380000D03*
X20320000Y-121920000D03*
X27940000Y-121920000D03*
X27940000Y-119380000D03*
X27940000Y-116840000D03*
X27940000Y-114300000D03*
X27940000Y-111760000D03*
X27940000Y-109220000D03*
X27940000Y-106680000D03*
%TD*%
%TO.C,C20*%
X90170000Y-15240000D03*
X90170000Y-20240000D03*
%TD*%
%TO.C,C16*%
X83820000Y-37465000D03*
X78820000Y-37465000D03*
%TD*%
%TO.C,C17*%
X96520000Y-40005000D03*
X91520000Y-40005000D03*
%TD*%
%TO.C,C8*%
X78820000Y-70485000D03*
X83820000Y-70485000D03*
%TD*%
D20*
%TO.C,J2*%
X5080000Y-22860000D03*
D21*
X7620000Y-22860000D03*
X5080000Y-25400000D03*
X7620000Y-25400000D03*
X5080000Y-27940000D03*
X7620000Y-27940000D03*
X5080000Y-30480000D03*
X7620000Y-30480000D03*
X5080000Y-33020000D03*
X7620000Y-33020000D03*
X5080000Y-35560000D03*
X7620000Y-35560000D03*
X5080000Y-38100000D03*
X7620000Y-38100000D03*
X5080000Y-40640000D03*
X7620000Y-40640000D03*
X5080000Y-43180000D03*
X7620000Y-43180000D03*
X5080000Y-45720000D03*
X7620000Y-45720000D03*
X5080000Y-48260000D03*
X7620000Y-48260000D03*
X5080000Y-50800000D03*
X7620000Y-50800000D03*
X5080000Y-53340000D03*
X7620000Y-53340000D03*
X5080000Y-55880000D03*
X7620000Y-55880000D03*
X5080000Y-58420000D03*
X7620000Y-58420000D03*
X5080000Y-60960000D03*
X7620000Y-60960000D03*
X5080000Y-63500000D03*
X7620000Y-63500000D03*
X5080000Y-66040000D03*
X7620000Y-66040000D03*
X5080000Y-68580000D03*
X7620000Y-68580000D03*
X5080000Y-71120000D03*
X7620000Y-71120000D03*
%TD*%
D20*
%TO.C,J3*%
X5080000Y-76200000D03*
D21*
X7620000Y-76200000D03*
X5080000Y-78740000D03*
X7620000Y-78740000D03*
X5080000Y-81280000D03*
X7620000Y-81280000D03*
X5080000Y-83820000D03*
X7620000Y-83820000D03*
X5080000Y-86360000D03*
X7620000Y-86360000D03*
X5080000Y-88900000D03*
X7620000Y-88900000D03*
X5080000Y-91440000D03*
X7620000Y-91440000D03*
X5080000Y-93980000D03*
X7620000Y-93980000D03*
X5080000Y-96520000D03*
X7620000Y-96520000D03*
X5080000Y-99060000D03*
X7620000Y-99060000D03*
X5080000Y-101600000D03*
X7620000Y-101600000D03*
X5080000Y-104140000D03*
X7620000Y-104140000D03*
X5080000Y-106680000D03*
X7620000Y-106680000D03*
X5080000Y-109220000D03*
X7620000Y-109220000D03*
X5080000Y-111760000D03*
X7620000Y-111760000D03*
X5080000Y-114300000D03*
X7620000Y-114300000D03*
X5080000Y-116840000D03*
X7620000Y-116840000D03*
X5080000Y-119380000D03*
X7620000Y-119380000D03*
X5080000Y-121920000D03*
X7620000Y-121920000D03*
X5080000Y-124460000D03*
X7620000Y-124460000D03*
%TD*%
D22*
%TO.C,C3*%
X15240000Y-132080000D03*
D10*
X15240000Y-129580000D03*
%TD*%
D22*
%TO.C,C2*%
X59690000Y-22860000D03*
D10*
X59690000Y-19360000D03*
%TD*%
D23*
%TO.C,U1*%
X35560000Y-66802000D03*
X35560000Y-68580000D03*
X35560000Y-70358000D03*
X35560000Y-72136000D03*
X35560000Y-73914000D03*
X35560000Y-75692000D03*
X35560000Y-77470000D03*
X35560000Y-79248000D03*
X35560000Y-81026000D03*
X35560000Y-82804000D03*
X35560000Y-84582000D03*
X35560000Y-86360000D03*
X35560000Y-88138000D03*
X35560000Y-89916000D03*
X35560000Y-91694000D03*
X35560000Y-93472000D03*
X35560000Y-95250000D03*
X35560000Y-97028000D03*
X35560000Y-98806000D03*
X35560000Y-100584000D03*
X35560000Y-102362000D03*
X35560000Y-104140000D03*
X35560000Y-105918000D03*
X35560000Y-107696000D03*
X35560000Y-109474000D03*
X35560000Y-111252000D03*
X35560000Y-113030000D03*
X35560000Y-114808000D03*
X35560000Y-116586000D03*
X35560000Y-118364000D03*
X35560000Y-120142000D03*
X35560000Y-121920000D03*
X54610000Y-121920000D03*
X54610000Y-120142000D03*
X54610000Y-118364000D03*
X54610000Y-116586000D03*
X54610000Y-114808000D03*
X54610000Y-113030000D03*
X54610000Y-111252000D03*
X54610000Y-109474000D03*
X54610000Y-107696000D03*
X54610000Y-105918000D03*
X54610000Y-104140000D03*
X54610000Y-102362000D03*
X54610000Y-100584000D03*
X54610000Y-98806000D03*
X54610000Y-97028000D03*
X54610000Y-95250000D03*
X54610000Y-93472000D03*
X54610000Y-91694000D03*
X54610000Y-89916000D03*
X54610000Y-88138000D03*
X54610000Y-86360000D03*
X54610000Y-84582000D03*
X54610000Y-82804000D03*
X54610000Y-81026000D03*
X54610000Y-79248000D03*
X54610000Y-77470000D03*
X54610000Y-75692000D03*
X54610000Y-73914000D03*
X54610000Y-72136000D03*
X54610000Y-70358000D03*
X54610000Y-68580000D03*
X54610000Y-66802000D03*
%TD*%
D10*
%TO.C,C5*%
X27860000Y-55245000D03*
X22860000Y-55245000D03*
%TD*%
D15*
%TO.C,U3*%
X20320000Y-83820000D03*
D10*
X20320000Y-86360000D03*
X20320000Y-88900000D03*
X20320000Y-91440000D03*
X20320000Y-93980000D03*
X20320000Y-96520000D03*
X20320000Y-99060000D03*
X27940000Y-99060000D03*
X27940000Y-96520000D03*
X27940000Y-93980000D03*
X27940000Y-91440000D03*
X27940000Y-88900000D03*
X27940000Y-86360000D03*
X27940000Y-83820000D03*
%TD*%
D15*
%TO.C,U10*%
X88900000Y-73660000D03*
D10*
X88900000Y-76200000D03*
X88900000Y-78740000D03*
X88900000Y-81280000D03*
X88900000Y-83820000D03*
X88900000Y-86360000D03*
X88900000Y-88900000D03*
X88900000Y-91440000D03*
X88900000Y-93980000D03*
X96520000Y-93980000D03*
X96520000Y-91440000D03*
X96520000Y-88900000D03*
X96520000Y-86360000D03*
X96520000Y-83820000D03*
X96520000Y-81280000D03*
X96520000Y-78740000D03*
X96520000Y-76200000D03*
X96520000Y-73660000D03*
%TD*%
D22*
%TO.C,C4*%
X68580000Y-32980000D03*
D10*
X68580000Y-30480000D03*
%TD*%
D15*
%TO.C,U14*%
X88900000Y-43180000D03*
D10*
X88900000Y-45720000D03*
X88900000Y-48260000D03*
X88900000Y-50800000D03*
X88900000Y-53340000D03*
X88900000Y-55880000D03*
X88900000Y-58420000D03*
X96520000Y-58420000D03*
X96520000Y-55880000D03*
X96520000Y-53340000D03*
X96520000Y-50800000D03*
X96520000Y-48260000D03*
X96520000Y-45720000D03*
X96520000Y-43180000D03*
%TD*%
%TO.C,C12*%
X91520000Y-98425000D03*
X96520000Y-98425000D03*
%TD*%
%TO.C,C1*%
X55245000Y-38735000D03*
X55245000Y-33735000D03*
%TD*%
%TO.C,C13*%
X27940000Y-80645000D03*
X22940000Y-80645000D03*
%TD*%
D15*
%TO.C,U5*%
X20320000Y-58420000D03*
D10*
X20320000Y-60960000D03*
X20320000Y-63500000D03*
X20320000Y-66040000D03*
X20320000Y-68580000D03*
X20320000Y-71120000D03*
X20320000Y-73660000D03*
X20320000Y-76200000D03*
X27940000Y-76200000D03*
X27940000Y-73660000D03*
X27940000Y-71120000D03*
X27940000Y-68580000D03*
X27940000Y-66040000D03*
X27940000Y-63500000D03*
X27940000Y-60960000D03*
X27940000Y-58420000D03*
%TD*%
M02*
