M48
; DRILL file {KiCad 9.0.6} date 2026-05-15T15:59:47+0900
; FORMAT={-:-/ absolute / metric / decimal}
; #@! TF.CreationDate,2026-05-15T15:59:47+09:00
; #@! TF.GenerationSoftware,Kicad,Pcbnew,9.0.6
; #@! TF.FileFunction,Plated,1,2,PTH
FMAT,2
METRIC
; #@! TA.AperFunction,Plated,PTH,ViaDrill
T1C0.300
; #@! TA.AperFunction,Plated,PTH,ComponentDrill
T2C0.800
; #@! TA.AperFunction,Plated,PTH,ComponentDrill
T3C1.000
; #@! TA.AperFunction,Plated,PTH,ComponentDrill
T4C1.500
%
G90
G05
T1
X2.5Y-2.5
X2.5Y-5.0
X2.5Y-10.0
X2.5Y-15.0
X2.5Y-20.0
X2.5Y-25.0
X2.5Y-30.0
X2.5Y-35.0
X2.5Y-40.0
X2.5Y-45.0
X2.5Y-50.0
X2.5Y-55.0
X2.5Y-60.0
X2.5Y-65.0
X2.5Y-70.0
X2.5Y-75.0
X2.5Y-80.0
X2.5Y-85.0
X2.5Y-90.0
X2.5Y-95.0
X2.5Y-100.0
X2.5Y-105.0
X2.5Y-110.0
X2.5Y-115.0
X2.5Y-120.0
X2.5Y-125.0
X2.5Y-130.0
X2.5Y-132.5
X5.0Y-2.5
X5.0Y-5.0
X5.0Y-10.0
X5.0Y-15.0
X5.0Y-20.0
X9.398Y-95.504
X9.398Y-101.854
X10.0Y-5.0
X10.0Y-10.0
X10.0Y-15.0
X10.0Y-20.0
X10.0Y-35.0
X10.0Y-47.5
X10.0Y-57.5
X10.0Y-77.5
X10.0Y-110.0
X10.0Y-115.0
X10.0Y-120.0
X10.0Y-125.0
X10.0Y-130.0
X10.16Y-27.94
X11.938Y-94.234
X11.938Y-101.854
X12.7Y-27.94
X15.0Y-5.0
X15.0Y-10.0
X15.0Y-15.0
X15.0Y-20.0
X15.0Y-35.0
X15.0Y-40.0
X15.0Y-45.0
X15.0Y-47.5
X15.0Y-60.0
X15.0Y-65.0
X15.0Y-70.0
X15.0Y-75.0
X15.0Y-110.0
X15.0Y-115.0
X15.0Y-120.0
X15.0Y-125.0
X15.24Y-27.94
X16.002Y-101.854
X16.51Y-93.98
X17.018Y-94.93
X17.018Y-102.87
X17.78Y-27.94
X17.78Y-53.34
X17.78Y-55.88
X17.78Y-123.19
X18.415Y-54.61
X18.415Y-120.65
X19.05Y-52.07
X19.05Y-118.11
X19.685Y-50.8
X19.685Y-115.57
X20.0Y-5.0
X20.0Y-10.0
X20.0Y-15.0
X20.0Y-20.0
X20.0Y-35.0
X20.0Y-40.0
X20.0Y-45.0
X20.0Y-47.5
X20.0Y-125.0
X20.0Y-130.0
X20.32Y-27.94
X20.32Y-49.53
X20.32Y-113.03
X20.955Y-33.02
X20.955Y-71.12
X21.336Y-93.726
X21.59Y-31.75
X21.59Y-68.58
X21.59Y-72.39
X21.59Y-76.2
X21.59Y-114.3
X21.59Y-116.84
X21.59Y-119.38
X21.59Y-121.92
X22.225Y-30.48
X22.225Y-66.04
X22.352Y-67.31
X22.86Y-29.21
X22.86Y-64.77
X23.495Y-26.67
X23.495Y-67.31
X23.495Y-72.39
X24.13Y-25.4
X24.13Y-69.85
X24.765Y-24.13
X24.765Y-72.39
X25.0Y-5.0
X25.0Y-10.0
X25.0Y-15.0
X25.0Y-20.0
X25.0Y-100.0
X25.0Y-110.0
X25.0Y-125.0
X25.0Y-130.0
X25.4Y-22.86
X25.4Y-74.93
X26.67Y-73.66
X26.67Y-76.2
X27.5Y-25.0
X27.5Y-32.5
X27.5Y-40.0
X27.5Y-47.5
X27.5Y-55.0
X27.5Y-62.5
X28.575Y-73.66
X29.21Y-76.2
X29.845Y-73.66
X30.0Y-100.0
X30.0Y-110.0
X30.0Y-125.0
X30.0Y-130.0
X30.48Y-76.2
X31.115Y-78.74
X31.75Y-81.28
X32.385Y-83.82
X33.02Y-86.36
X33.655Y-88.9
X33.655Y-93.98
X34.29Y-91.44
X34.925Y-97.79
X35.0Y-7.5
X35.0Y-20.0
X35.0Y-100.0
X35.0Y-110.0
X35.0Y-125.0
X35.0Y-130.0
X35.56Y-98.425
X36.195Y-106.68
X36.83Y-109.22
X36.83Y-114.3
X36.83Y-116.84
X36.83Y-119.38
X36.83Y-121.92
X37.465Y-111.76
X37.5Y-32.5
X38.1Y-114.3
X38.735Y-80.01
X39.37Y-107.95
X39.37Y-110.49
X40.0Y-7.5
X40.0Y-20.0
X40.0Y-32.5
X40.0Y-45.0
X40.0Y-50.0
X40.0Y-55.0
X40.0Y-60.0
X40.0Y-100.0
X40.0Y-125.0
X40.0Y-130.0
X40.005Y-63.5
X40.48Y-94.93
X43.18Y-95.88
X44.45Y-92.075
X45.0Y-7.5
X45.0Y-20.0
X45.0Y-32.5
X45.0Y-45.0
X45.0Y-125.0
X45.0Y-130.0
X45.085Y-92.71
X46.355Y-52.705
X46.355Y-63.5
X47.244Y-102.87
X48.895Y-107.95
X48.895Y-110.49
X48.895Y-116.84
X48.895Y-119.38
X48.895Y-121.92
X49.022Y-124.206
X49.276Y-100.33
X50.0Y-55.0
X50.0Y-60.0
X50.0Y-130.0
X52.324Y-125.476
X53.34Y-88.9
X53.34Y-96.52
X53.34Y-101.6
X53.594Y-48.768
X55.0Y-5.0
X55.0Y-10.0
X55.0Y-15.0
X55.0Y-20.0
X55.0Y-25.0
X55.0Y-30.0
X55.0Y-35.0
X55.0Y-40.0
X55.0Y-55.0
X55.0Y-60.0
X55.0Y-130.0
X57.15Y-88.9
X57.15Y-96.52
X57.15Y-101.6
X60.0Y-10.0
X60.0Y-15.0
X60.0Y-20.0
X60.0Y-25.0
X60.0Y-30.0
X60.0Y-35.0
X60.0Y-40.0
X60.0Y-55.0
X60.0Y-60.0
X60.0Y-130.0
X60.96Y-97.155
X61.595Y-95.25
X61.702Y-83.713
X61.722Y-125.476
X62.23Y-92.71
X62.23Y-104.14
X63.5Y-93.98
X64.77Y-127.0
X65.0Y-5.0
X65.0Y-10.0
X65.0Y-15.0
X65.0Y-20.0
X65.0Y-25.0
X65.0Y-30.0
X65.0Y-35.0
X65.0Y-40.0
X65.0Y-55.0
X65.0Y-60.0
X65.0Y-130.0
X66.548Y-49.53
X67.564Y-82.804
X67.818Y-78.74
X67.818Y-88.138
X67.945Y-119.38
X67.945Y-121.92
X67.945Y-124.46
X68.58Y-107.95
X68.58Y-110.49
X70.0Y-55.0
X70.0Y-60.0
X70.0Y-65.0
X70.0Y-70.0
X70.0Y-75.0
X70.0Y-85.0
X70.0Y-90.0
X70.0Y-95.0
X70.0Y-100.0
X70.0Y-105.0
X70.0Y-115.0
X70.0Y-130.0
X71.755Y-96.52
X71.755Y-123.19
X72.39Y-90.17
X72.39Y-125.73
X72.5Y-32.5
X73.025Y-26.67
X73.025Y-95.25
X73.025Y-120.65
X73.66Y-22.225
X73.66Y-88.9
X73.66Y-118.11
X74.295Y-57.785
X74.295Y-93.98
X74.676Y-102.87
X74.676Y-107.95
X74.93Y-55.88
X74.93Y-101.6
X74.93Y-110.49
X75.0Y-2.5
X75.0Y-15.0
X75.0Y-27.5
X75.0Y-40.0
X75.0Y-45.0
X75.0Y-50.0
X75.0Y-115.0
X75.0Y-120.0
X75.0Y-125.0
X75.0Y-130.0
X75.565Y-53.975
X75.565Y-109.22
X76.2Y-52.07
X76.2Y-111.76
X77.216Y-64.77
X77.216Y-84.917
X77.216Y-87.63
X77.47Y-92.71
X77.5Y-20.0
X77.5Y-32.5
X78.105Y-91.44
X78.74Y-27.94
X78.74Y-96.52
X79.375Y-97.79
X80.0Y-2.5
X80.0Y-30.0
X80.0Y-40.0
X80.0Y-45.0
X80.0Y-50.0
X80.0Y-60.0
X80.0Y-65.0
X80.0Y-100.0
X80.0Y-105.0
X80.0Y-110.0
X80.0Y-115.0
X80.0Y-120.0
X80.0Y-125.0
X80.0Y-130.0
X80.01Y-92.71
X81.28Y-52.07
X81.28Y-53.975
X81.28Y-55.88
X81.28Y-57.785
X81.534Y-72.898
X82.55Y-23.605
X82.55Y-24.705
X82.55Y-26.905
X82.55Y-29.105
X82.55Y-85.09
X82.55Y-87.63
X85.0Y-2.5
X85.0Y-5.0
X85.0Y-15.0
X85.0Y-20.0
X85.0Y-25.0
X85.0Y-30.0
X85.0Y-40.0
X85.0Y-45.0
X85.0Y-50.0
X85.0Y-60.0
X85.0Y-65.0
X85.0Y-75.0
X85.0Y-80.0
X85.0Y-115.0
X85.0Y-120.0
X85.0Y-130.0
X85.598Y-89.154
X87.5Y-12.5
X87.63Y-99.06
X87.63Y-106.68
X87.63Y-116.84
X88.9Y-109.22
X89.916Y-64.77
X90.0Y-2.5
X90.0Y-5.0
X90.0Y-15.0
X90.0Y-35.0
X90.0Y-40.0
X90.0Y-45.0
X90.0Y-50.0
X90.0Y-55.0
X90.0Y-60.0
X90.0Y-75.0
X90.0Y-110.0
X90.0Y-115.0
X90.0Y-120.0
X90.0Y-130.0
X90.17Y-87.63
X90.17Y-90.17
X90.17Y-100.33
X95.0Y-2.5
X95.0Y-15.0
X95.0Y-20.0
X95.0Y-25.0
X95.0Y-30.0
X95.0Y-35.0
X95.0Y-40.0
X95.0Y-45.0
X95.0Y-50.0
X95.0Y-55.0
X95.0Y-60.0
X95.0Y-65.0
X95.0Y-70.0
X95.0Y-75.0
X95.0Y-80.0
X95.0Y-85.0
X95.0Y-90.0
X95.0Y-95.0
X95.0Y-100.0
X95.0Y-105.0
X95.0Y-110.0
X95.0Y-115.0
X95.0Y-120.0
X95.0Y-125.0
X95.0Y-130.0
X97.5Y-2.5
X97.5Y-5.0
X97.5Y-7.5
X97.5Y-12.5
T2
X15.24Y-129.961
X15.24Y-132.461
X21.59Y-127.461
X21.59Y-132.461
X45.72Y-93.98
X45.72Y-98.98
X50.8Y-66.04
X50.8Y-68.58
X50.8Y-71.12
X50.8Y-73.66
X50.8Y-76.2
X50.8Y-78.74
X50.8Y-81.28
X50.8Y-83.82
X50.8Y-86.36
X50.8Y-88.9
X50.8Y-91.44
X50.8Y-93.98
X50.8Y-96.52
X50.8Y-99.06
X50.8Y-101.6
X50.8Y-104.14
X50.8Y-106.68
X50.8Y-109.22
X50.8Y-111.76
X50.8Y-114.3
X50.8Y-116.84
X50.8Y-119.38
X50.8Y-121.92
X50.8Y-124.46
X61.04Y-62.865
X66.04Y-62.865
X66.04Y-66.04
X66.04Y-68.58
X66.04Y-71.12
X66.04Y-73.66
X66.04Y-76.2
X66.04Y-78.74
X66.04Y-81.28
X66.04Y-83.82
X66.04Y-86.36
X66.04Y-88.9
X66.04Y-91.44
X66.04Y-93.98
X66.04Y-96.52
X66.04Y-99.06
X66.04Y-101.6
X66.04Y-104.14
X66.04Y-106.68
X66.04Y-109.22
X66.04Y-111.76
X66.04Y-114.3
X66.04Y-116.84
X66.04Y-119.38
X66.04Y-121.92
X66.04Y-124.46
X74.375Y-20.32
X76.875Y-24.384
X79.375Y-20.32
X79.375Y-24.384
X83.82Y-83.82
X83.82Y-86.36
X83.82Y-88.9
X83.82Y-91.44
X83.82Y-93.98
X83.82Y-96.52
X83.82Y-99.06
X83.82Y-109.22
X83.82Y-116.84
X86.44Y-80.645
X86.44Y-104.775
X91.44Y-80.645
X91.44Y-83.82
X91.44Y-86.36
X91.44Y-88.9
X91.44Y-91.44
X91.44Y-93.98
X91.44Y-96.52
X91.44Y-99.06
X91.44Y-104.775
X91.44Y-109.22
X91.44Y-116.84
T3
X5.0Y-76.2
X5.0Y-78.74
X5.0Y-81.28
X5.0Y-83.82
X5.0Y-86.36
X5.0Y-88.9
X5.0Y-91.44
X5.0Y-93.98
X5.0Y-96.52
X5.0Y-99.06
X5.0Y-101.6
X5.0Y-104.14
X5.0Y-106.68
X5.0Y-109.22
X5.0Y-111.76
X5.0Y-114.3
X5.0Y-116.84
X5.0Y-119.38
X5.0Y-121.92
X5.0Y-124.46
X5.08Y-22.86
X5.08Y-25.4
X5.08Y-27.94
X5.08Y-30.48
X5.08Y-33.02
X5.08Y-35.56
X5.08Y-38.1
X5.08Y-40.64
X5.08Y-43.18
X5.08Y-45.72
X5.08Y-48.26
X5.08Y-50.8
X5.08Y-53.34
X5.08Y-55.88
X5.08Y-58.42
X5.08Y-60.96
X5.08Y-63.5
X5.08Y-66.04
X5.08Y-68.58
X5.08Y-71.12
X7.54Y-76.2
X7.54Y-78.74
X7.54Y-81.28
X7.54Y-83.82
X7.54Y-86.36
X7.54Y-88.9
X7.54Y-91.44
X7.54Y-93.98
X7.54Y-96.52
X7.54Y-99.06
X7.54Y-101.6
X7.54Y-104.14
X7.54Y-106.68
X7.54Y-109.22
X7.54Y-111.76
X7.54Y-114.3
X7.54Y-116.84
X7.54Y-119.38
X7.54Y-121.92
X7.54Y-124.46
X7.62Y-22.86
X7.62Y-25.4
X7.62Y-27.94
X7.62Y-30.48
X7.62Y-33.02
X7.62Y-35.56
X7.62Y-38.1
X7.62Y-40.64
X7.62Y-43.18
X7.62Y-45.72
X7.62Y-48.26
X7.62Y-50.8
X7.62Y-53.34
X7.62Y-55.88
X7.62Y-58.42
X7.62Y-60.96
X7.62Y-63.5
X7.62Y-66.04
X7.62Y-68.58
X7.62Y-71.12
X51.524Y-2.54
X51.524Y-5.08
X51.524Y-7.62
X51.524Y-10.16
X51.524Y-12.7
X51.524Y-15.24
X51.524Y-17.78
X51.524Y-20.32
X51.524Y-22.86
X51.524Y-25.4
X51.524Y-27.94
X51.524Y-30.48
X51.524Y-33.02
X51.524Y-35.56
X51.524Y-38.1
X51.524Y-40.64
X51.524Y-43.18
X51.524Y-45.72
X51.524Y-48.26
X51.524Y-50.8
X69.304Y-2.54
X69.304Y-5.08
X69.304Y-7.62
X69.304Y-10.16
X69.304Y-12.7
X69.304Y-15.24
X69.304Y-17.78
X69.304Y-20.32
X69.304Y-22.86
X69.304Y-25.4
X69.304Y-27.94
X69.304Y-30.48
X69.304Y-33.02
X69.304Y-35.56
X69.304Y-38.1
X69.304Y-40.64
X69.304Y-43.18
X69.304Y-45.72
X69.304Y-48.26
X69.304Y-50.8
T4
X84.38Y-8.935
X84.38Y-11.635
X86.13Y-8.935
X89.13Y-8.935
X90.88Y-8.935
X90.88Y-11.635
M30
