%TF.GenerationSoftware,KiCad,Pcbnew,9.0.6*%
%TF.CreationDate,2026-04-23T00:03:36+09:00*%
%TF.ProjectId,68k8-boad,36386b38-2d62-46f6-9164-2e6b69636164,rev?*%
%TF.SameCoordinates,Original*%
%TF.FileFunction,Paste,Top*%
%TF.FilePolarity,Positive*%
%FSLAX46Y46*%
G04 Gerber Fmt 4.6, Leading zero omitted, Abs format (unit mm)*
G04 Created by KiCad (PCBNEW 9.0.6) date 2026-04-23 00:03:36*
%MOMM*%
%LPD*%
G01*
G04 APERTURE LIST*
G04 Aperture macros list*
%AMRoundRect*
0 Rectangle with rounded corners*
0 $1 Rounding radius*
0 $2 $3 $4 $5 $6 $7 $8 $9 X,Y pos of 4 corners*
0 Add a 4 corners polygon primitive as box body*
4,1,4,$2,$3,$4,$5,$6,$7,$8,$9,$2,$3,0*
0 Add four circle primitives for the rounded corners*
1,1,$1+$1,$2,$3*
1,1,$1+$1,$4,$5*
1,1,$1+$1,$6,$7*
1,1,$1+$1,$8,$9*
0 Add four rect primitives between the rounded corners*
20,1,$1+$1,$2,$3,$4,$5,0*
20,1,$1+$1,$4,$5,$6,$7,0*
20,1,$1+$1,$6,$7,$8,$9,0*
20,1,$1+$1,$8,$9,$2,$3,0*%
G04 Aperture macros list end*
%ADD10RoundRect,0.200000X0.200000X0.275000X-0.200000X0.275000X-0.200000X-0.275000X0.200000X-0.275000X0*%
%ADD11RoundRect,0.200000X-0.200000X-0.275000X0.200000X-0.275000X0.200000X0.275000X-0.200000X0.275000X0*%
%ADD12RoundRect,0.150000X-0.512500X-0.150000X0.512500X-0.150000X0.512500X0.150000X-0.512500X0.150000X0*%
G04 APERTURE END LIST*
D10*
%TO.C,R21*%
X11176000Y-45720000D03*
X9526000Y-45720000D03*
%TD*%
%TO.C,R4*%
X102742000Y-30480000D03*
X101092000Y-30480000D03*
%TD*%
%TO.C,R15*%
X51942000Y-111760000D03*
X50292000Y-111760000D03*
%TD*%
%TO.C,R12*%
X51942000Y-119380000D03*
X50292000Y-119380000D03*
%TD*%
%TO.C,R3*%
X102742000Y-48260000D03*
X101092000Y-48260000D03*
%TD*%
D11*
%TO.C,R17*%
X59818000Y-10160000D03*
X61468000Y-10160000D03*
%TD*%
D12*
%TO.C,U15*%
X8393000Y-16388000D03*
X8393000Y-17338000D03*
X8393000Y-18288000D03*
X10668000Y-18288000D03*
X10668000Y-16388000D03*
%TD*%
D11*
%TO.C,R9*%
X29338000Y-119380000D03*
X30988000Y-119380000D03*
%TD*%
D10*
%TO.C,R16*%
X74802000Y-17780000D03*
X73152000Y-17780000D03*
%TD*%
%TO.C,R1*%
X102742000Y-50800000D03*
X101092000Y-50800000D03*
%TD*%
D11*
%TO.C,R8*%
X29338000Y-116840000D03*
X30988000Y-116840000D03*
%TD*%
D10*
%TO.C,R11*%
X51942000Y-121920000D03*
X50292000Y-121920000D03*
%TD*%
%TO.C,R2*%
X102742000Y-45720000D03*
X101092000Y-45720000D03*
%TD*%
%TO.C,R20*%
X11176000Y-53340000D03*
X9526000Y-53340000D03*
%TD*%
%TO.C,R5*%
X102742000Y-27940000D03*
X101092000Y-27940000D03*
%TD*%
%TO.C,R22*%
X11176000Y-38100000D03*
X9526000Y-38100000D03*
%TD*%
D11*
%TO.C,R10*%
X29338000Y-121920000D03*
X30988000Y-121920000D03*
%TD*%
%TO.C,R18*%
X59818000Y-15240000D03*
X61468000Y-15240000D03*
%TD*%
D10*
%TO.C,R13*%
X51942000Y-116840000D03*
X50292000Y-116840000D03*
%TD*%
%TO.C,R19*%
X10160000Y-22860000D03*
X8510000Y-22860000D03*
%TD*%
%TO.C,R6*%
X102742000Y-38100000D03*
X101092000Y-38100000D03*
%TD*%
%TO.C,R7*%
X102742000Y-35560000D03*
X101092000Y-35560000D03*
%TD*%
%TO.C,R14*%
X51942000Y-114300000D03*
X50292000Y-114300000D03*
%TD*%
M02*
