M48
; DRILL file {KiCad 9.0.6} date 2026-04-23T00:03:42+0900
; FORMAT={-:-/ absolute / metric / decimal}
; #@! TF.CreationDate,2026-04-23T00:03:42+09:00
; #@! TF.GenerationSoftware,Kicad,Pcbnew,9.0.6
; #@! TF.FileFunction,Plated,1,2,PTH
FMAT,2
METRIC
; #@! TA.AperFunction,Plated,PTH,ViaDrill
T1C0.300
; #@! TA.AperFunction,Plated,PTH,ComponentDrill
T2C0.750
; #@! TA.AperFunction,Plated,PTH,ComponentDrill
T3C0.800
; #@! TA.AperFunction,Plated,PTH,ComponentDrill
T4C0.900
; #@! TA.AperFunction,Plated,PTH,ComponentDrill
T5C0.950
; #@! TA.AperFunction,Plated,PTH,ComponentDrill
T6C1.000
; #@! TA.AperFunction,Plated,PTH,ComponentDrill
T7C1.100
%
G90
G05
T1
X2.5Y-2.5
X2.5Y-5.0
X2.5Y-30.0
X2.5Y-35.0
X2.5Y-130.0
X2.5Y-132.5
X5.0Y-2.5
X5.0Y-10.0
X5.0Y-15.0
X5.0Y-30.0
X5.0Y-35.0
X5.0Y-40.0
X5.0Y-50.0
X5.0Y-60.0
X5.0Y-75.0
X5.0Y-80.0
X5.0Y-100.0
X5.0Y-105.0
X5.0Y-110.0
X5.0Y-115.0
X5.0Y-120.0
X5.0Y-125.0
X5.0Y-132.5
X8.128Y-92.964
X8.636Y-90.17
X8.89Y-20.955
X10.0Y-5.0
X10.0Y-10.0
X10.0Y-15.0
X10.0Y-35.0
X10.0Y-40.0
X10.0Y-50.0
X10.0Y-65.0
X10.0Y-70.0
X10.0Y-75.0
X10.0Y-80.0
X10.0Y-85.0
X10.0Y-95.0
X10.0Y-100.0
X10.0Y-120.0
X10.0Y-125.0
X10.0Y-130.0
X10.16Y-127.0
X11.176Y-38.1
X11.176Y-45.72
X11.176Y-92.964
X11.684Y-36.83
X12.192Y-93.98
X12.7Y-41.91
X13.97Y-46.99
X13.97Y-127.0
X13.97Y-130.81
X14.224Y-90.17
X14.224Y-91.44
X15.0Y-5.0
X15.0Y-15.0
X15.0Y-20.0
X15.0Y-25.0
X15.0Y-30.0
X15.0Y-35.0
X15.0Y-55.0
X15.0Y-60.0
X15.0Y-65.0
X15.0Y-75.0
X15.0Y-80.0
X15.0Y-100.0
X15.24Y-38.1
X16.256Y-41.91
X17.78Y-1.27
X20.0Y-55.0
X20.0Y-90.0
X20.0Y-95.0
X20.0Y-100.0
X20.0Y-105.0
X20.0Y-110.0
X20.0Y-115.0
X20.0Y-120.0
X20.0Y-125.0
X20.0Y-130.0
X20.32Y-7.62
X20.32Y-10.16
X20.32Y-12.7
X20.32Y-15.24
X20.32Y-20.32
X20.32Y-22.86
X20.32Y-25.4
X20.32Y-39.37
X20.32Y-45.72
X20.32Y-48.26
X20.32Y-66.04
X20.32Y-76.2
X20.32Y-78.74
X22.098Y-50.8
X22.098Y-68.58
X22.098Y-71.12
X22.098Y-114.3
X22.86Y-27.686
X22.86Y-63.5
X22.86Y-73.66
X23.876Y-78.486
X25.0Y-55.0
X25.0Y-90.0
X25.0Y-95.0
X25.0Y-100.0
X25.0Y-105.0
X25.0Y-110.0
X25.0Y-115.0
X25.0Y-120.0
X25.0Y-125.0
X25.0Y-130.0
X25.4Y-27.94
X26.924Y-104.14
X27.178Y-43.85
X27.178Y-72.39
X27.305Y-125.73
X27.94Y-1.016
X27.94Y-5.08
X27.94Y-7.62
X27.94Y-19.244
X27.94Y-33.02
X27.94Y-74.93
X27.94Y-126.365
X28.575Y-10.16
X28.575Y-46.609
X28.575Y-127.0
X29.21Y-12.7
X29.21Y-62.23
X29.845Y-15.24
X29.845Y-53.975
X30.0Y-55.0
X30.0Y-65.0
X30.0Y-70.0
X30.0Y-75.0
X30.0Y-85.0
X30.0Y-90.0
X30.0Y-95.0
X30.0Y-100.0
X30.0Y-105.0
X30.0Y-110.0
X30.0Y-115.0
X30.0Y-125.0
X30.0Y-130.0
X30.48Y-17.78
X30.48Y-52.07
X30.734Y-10.16
X31.496Y-15.494
X31.496Y-49.53
X32.004Y-30.226
X33.02Y-5.08
X33.02Y-27.94
X34.29Y-22.225
X34.925Y-54.61
X34.925Y-96.52
X35.0Y-60.0
X35.0Y-65.0
X35.0Y-85.0
X35.0Y-90.0
X35.0Y-95.0
X35.0Y-105.0
X35.0Y-110.0
X35.0Y-115.0
X35.0Y-120.0
X35.0Y-125.0
X35.0Y-130.0
X35.56Y-25.4
X35.56Y-35.56
X35.56Y-38.1
X35.56Y-43.18
X35.56Y-81.026
X35.814Y-45.72
X35.814Y-48.768
X35.814Y-55.88
X36.576Y-15.24
X36.83Y-8.382
X36.83Y-126.365
X37.4Y-22.86
X38.1Y-1.016
X38.1Y-20.32
X38.1Y-88.9
X38.8Y-51.435
X38.8Y-125.73
X39.116Y-47.408
X39.878Y-81.026
X40.0Y-55.0
X40.0Y-60.0
X40.0Y-65.0
X40.0Y-85.0
X40.0Y-90.0
X40.0Y-95.0
X40.0Y-100.0
X40.0Y-105.0
X40.0Y-110.0
X40.0Y-115.0
X40.0Y-120.0
X40.0Y-125.0
X40.0Y-130.0
X40.64Y-27.94
X41.91Y-36.449
X41.91Y-66.04
X42.418Y-13.97
X42.672Y-25.4
X42.672Y-30.226
X42.926Y-7.62
X42.926Y-35.814
X42.926Y-38.354
X42.926Y-43.18
X42.926Y-45.72
X42.926Y-48.26
X42.926Y-49.784
X42.926Y-55.372
X43.18Y-4.572
X43.18Y-64.77
X43.815Y-15.24
X44.45Y-15.875
X44.45Y-71.12
X44.45Y-81.026
X45.0Y-85.0
X45.0Y-90.0
X45.0Y-95.0
X45.0Y-100.0
X45.0Y-105.0
X45.0Y-110.0
X45.0Y-115.0
X45.0Y-120.0
X45.0Y-125.0
X45.0Y-130.0
X45.085Y-22.86
X45.085Y-51.435
X45.72Y-38.1
X45.72Y-46.482
X45.72Y-104.14
X46.228Y-7.62
X46.228Y-15.24
X46.355Y-35.56
X46.355Y-43.18
X46.355Y-52.705
X46.355Y-63.5
X46.482Y-25.4
X46.482Y-30.226
X47.244Y-55.372
X47.498Y-49.784
X48.26Y-1.016
X48.26Y-4.572
X48.26Y-27.94
X49.53Y-50.165
X50.0Y-55.0
X50.0Y-105.0
X50.0Y-110.0
X50.0Y-125.0
X50.0Y-130.0
X50.165Y-50.8
X50.165Y-55.88
X50.8Y-57.332
X50.8Y-84.836
X50.8Y-87.63
X50.8Y-90.17
X50.8Y-93.98
X50.88Y-35.56
X51.054Y-99.06
X51.562Y-59.69
X51.629Y-34.484
X51.816Y-13.97
X51.942Y-111.76
X51.942Y-114.3
X51.942Y-116.84
X51.942Y-119.38
X51.942Y-121.92
X51.978Y-15.24
X52.07Y-48.26
X52.07Y-58.42
X52.07Y-129.54
X52.077Y-62.036
X52.578Y-12.7
X52.578Y-31.496
X52.64Y-33.655
X52.64Y-38.735
X52.64Y-64.576
X53.34Y-20.32
X53.34Y-60.325
X54.04Y-91.44
X54.04Y-121.92
X54.04Y-128.903
X54.102Y-36.83
X54.356Y-34.798
X54.57Y-129.503
X54.61Y-32.004
X54.61Y-60.071
X54.61Y-62.611
X54.61Y-88.9
X54.61Y-119.38
X55.0Y-55.0
X55.0Y-105.0
X55.0Y-110.0
X55.0Y-115.0
X55.192Y-130.006
X55.245Y-86.36
X55.245Y-116.84
X55.305Y-65.341
X55.88Y-58.42
X55.88Y-63.5
X55.88Y-88.9
X55.88Y-93.98
X55.88Y-99.06
X55.88Y-114.3
X55.91Y-130.369
X56.134Y-70.866
X56.134Y-73.406
X56.134Y-75.946
X56.134Y-78.486
X56.134Y-81.28
X56.134Y-83.82
X56.515Y-111.76
X56.706Y-130.466
X57.15Y-52.13
X57.15Y-60.96
X57.15Y-96.52
X57.15Y-124.46
X57.404Y-49.276
X57.658Y-44.45
X57.658Y-45.72
X57.785Y-17.78
X57.785Y-20.32
X57.785Y-22.86
X58.42Y-1.016
X58.42Y-4.572
X58.42Y-41.275
X58.42Y-47.184
X58.42Y-110.49
X59.055Y-21.59
X59.055Y-53.34
X59.369Y-77.216
X59.369Y-99.06
X59.69Y-24.13
X59.69Y-56.515
X59.877Y-74.93
X59.877Y-101.6
X60.0Y-115.0
X60.0Y-120.0
X60.265Y-40.64
X60.325Y-41.91
X60.325Y-68.58
X60.385Y-72.136
X60.385Y-104.14
X60.893Y-69.596
X60.893Y-106.68
X60.96Y-25.4
X60.96Y-27.94
X60.96Y-30.48
X61.214Y-49.276
X61.468Y-55.118
X61.468Y-58.42
X61.468Y-63.5
X61.468Y-67.31
X61.468Y-111.506
X61.595Y-20.32
X61.595Y-23.495
X61.595Y-48.26
X62.484Y-46.99
X63.246Y-81.534
X63.5Y-4.572
X63.5Y-27.94
X63.5Y-30.48
X65.0Y-70.0
X65.0Y-75.0
X65.0Y-125.0
X65.024Y-37.465
X65.278Y-45.72
X65.278Y-48.26
X65.405Y-20.32
X65.405Y-22.86
X66.04Y-27.94
X66.04Y-33.02
X67.056Y-45.72
X67.056Y-48.26
X67.31Y-17.78
X67.31Y-24.765
X67.31Y-63.5
X67.31Y-66.04
X67.31Y-69.85
X67.31Y-72.39
X67.31Y-80.01
X68.58Y-1.016
X68.58Y-7.62
X68.58Y-12.7
X68.58Y-58.42
X68.58Y-68.58
X68.58Y-71.12
X68.58Y-73.66
X69.596Y-21.336
X69.596Y-25.654
X69.596Y-35.56
X69.85Y-28.448
X69.85Y-31.496
X69.85Y-74.93
X70.0Y-120.0
X70.0Y-125.0
X70.866Y-78.232
X71.12Y-83.82
X72.39Y-23.114
X72.39Y-50.165
X72.39Y-104.14
X72.639Y-40.501
X72.644Y-19.812
X72.644Y-35.306
X72.644Y-42.164
X72.898Y-25.654
X73.025Y-33.02
X73.66Y-36.195
X73.66Y-76.2
X73.66Y-78.105
X73.66Y-79.375
X73.66Y-82.55
X73.66Y-83.82
X74.295Y-34.29
X74.295Y-60.96
X74.676Y-119.888
X74.93Y-45.72
X74.93Y-54.61
X74.93Y-109.22
X75.0Y-5.0
X75.0Y-15.0
X75.0Y-20.0
X75.0Y-25.0
X75.0Y-30.0
X75.0Y-35.0
X75.0Y-40.0
X75.0Y-125.0
X75.184Y-43.942
X75.565Y-36.195
X76.2Y-17.78
X78.105Y-34.925
X78.105Y-36.195
X78.105Y-40.005
X78.105Y-43.815
X78.74Y-1.016
X78.74Y-4.572
X78.74Y-27.94
X78.74Y-33.02
X78.74Y-53.975
X78.808Y-58.488
X79.375Y-34.29
X79.375Y-50.165
X79.375Y-51.435
X79.375Y-57.912
X80.0Y-125.0
X80.01Y-2.54
X80.01Y-48.26
X80.01Y-88.9
X80.645Y-3.175
X80.645Y-45.72
X80.645Y-86.995
X80.873Y-107.255
X81.28Y-1.905
X81.28Y-50.8
X81.28Y-85.09
X81.826Y-91.529
X81.855Y-52.831
X81.915Y-15.24
X81.915Y-17.78
X82.042Y-40.386
X82.296Y-19.812
X82.296Y-23.114
X82.296Y-25.4
X82.296Y-27.686
X82.296Y-30.48
X82.296Y-33.02
X82.296Y-35.56
X82.296Y-43.688
X82.5Y-2.5
X82.55Y-21.59
X83.82Y-87.212
X84.836Y-41.91
X85.0Y-2.5
X85.0Y-5.0
X85.0Y-70.0
X85.0Y-75.0
X85.0Y-80.0
X85.0Y-85.0
X85.0Y-125.0
X85.09Y-44.069
X85.09Y-52.705
X85.725Y-39.37
X86.95Y-110.356
X86.995Y-13.97
X87.63Y-10.795
X87.63Y-104.775
X88.265Y-29.016
X88.265Y-55.88
X88.265Y-111.76
X88.9Y-26.476
X88.9Y-58.42
X88.9Y-114.3
X88.9Y-120.65
X89.535Y-23.495
X89.535Y-60.96
X89.535Y-116.84
X90.0Y-2.5
X90.0Y-5.0
X90.0Y-125.0
X90.17Y-20.955
X90.17Y-63.5
X90.17Y-119.38
X90.805Y-18.415
X90.805Y-65.405
X90.805Y-121.92
X91.44Y-15.875
X91.44Y-66.04
X91.44Y-118.11
X92.075Y-13.851
X92.075Y-63.5
X92.075Y-115.57
X92.71Y-12.7
X92.71Y-62.23
X92.71Y-113.03
X93.345Y-17.78
X93.345Y-58.42
X93.98Y-55.88
X93.98Y-67.31
X93.98Y-88.9
X94.615Y-11.43
X94.615Y-20.32
X95.0Y-2.5
X95.0Y-70.0
X95.0Y-75.0
X95.0Y-80.0
X95.0Y-115.0
X95.0Y-120.0
X95.0Y-125.0
X95.25Y-9.525
X95.25Y-17.78
X95.82Y-8.89
X95.82Y-15.24
X95.82Y-87.787
X95.82Y-91.44
X96.52Y-38.1
X97.22Y-45.085
X97.79Y-6.35
X97.79Y-115.57
X97.79Y-120.65
X97.79Y-122.936
X100.0Y-2.5
X100.0Y-70.0
X100.0Y-75.0
X100.0Y-80.0
X100.0Y-125.0
X100.33Y-40.64
X100.33Y-44.196
X100.584Y-62.23
X100.838Y-88.9
X100.838Y-104.14
X101.346Y-58.42
X101.533Y-69.85
X101.6Y-6.858
X101.6Y-60.325
X101.6Y-111.76
X101.6Y-116.84
X101.6Y-121.92
X101.854Y-40.64
X101.854Y-44.196
X102.235Y-59.436
X102.235Y-72.584
X102.87Y-56.515
X102.87Y-77.47
X103.124Y-88.9
X103.124Y-104.14
X103.505Y-54.61
X103.533Y-38.989
X103.533Y-49.53
X103.565Y-74.612
X104.14Y-30.48
X104.14Y-112.395
X104.775Y-33.02
X104.775Y-119.38
X105.0Y-2.5
X105.0Y-5.0
X105.0Y-125.0
X105.41Y-30.734
X105.41Y-40.005
X105.41Y-88.9
X105.918Y-33.274
X105.918Y-104.14
X106.045Y-34.925
X106.045Y-86.36
X106.045Y-91.44
X106.172Y-30.734
X106.68Y-32.385
X106.68Y-83.82
X106.68Y-93.98
X106.68Y-111.506
X107.315Y-29.845
X107.315Y-81.28
X107.315Y-90.17
X107.442Y-104.14
X107.95Y-27.305
X107.95Y-78.74
X107.95Y-101.6
X108.585Y-24.765
X108.585Y-76.2
X108.585Y-106.68
X108.966Y-121.92
X109.22Y-22.225
X109.22Y-73.66
X109.22Y-99.06
X109.22Y-111.506
X109.728Y-101.854
X109.728Y-104.14
X109.855Y-19.685
X109.855Y-71.12
X109.855Y-96.52
X110.0Y-5.0
X110.0Y-115.0
X110.0Y-125.0
X110.49Y-17.018
X110.49Y-58.42
X110.49Y-92.71
X110.49Y-99.314
X110.998Y-96.52
X111.125Y-14.605
X111.125Y-55.88
X111.125Y-95.25
X111.76Y-12.065
X111.76Y-53.34
X111.76Y-97.79
X112.014Y-101.854
X112.395Y-9.525
X112.395Y-50.8
X112.395Y-100.33
X112.522Y-104.14
X113.03Y-8.89
X113.03Y-48.26
X113.03Y-102.87
X113.665Y-8.255
X113.665Y-45.72
X113.665Y-106.045
X113.792Y-111.506
X114.3Y-10.16
X114.3Y-43.18
X114.3Y-107.95
X114.3Y-121.92
X114.808Y-8.636
X114.935Y-12.7
X114.935Y-40.64
X114.935Y-110.49
X115.0Y-5.0
X115.0Y-115.0
X115.0Y-125.0
X115.824Y-33.02
X116.078Y-35.56
X116.84Y-63.5
X116.84Y-66.675
X117.094Y-31.75
X117.094Y-33.02
X117.094Y-35.56
X118.11Y-34.29
X118.11Y-68.58
X118.11Y-126.365
X118.745Y-102.87
X118.745Y-104.775
X118.745Y-111.76
X119.38Y-40.64
X119.38Y-44.45
X119.38Y-49.53
X119.38Y-53.34
X119.38Y-55.88
X119.38Y-59.69
X119.38Y-63.5
X119.38Y-71.12
X119.38Y-78.74
X119.38Y-80.01
X119.38Y-85.09
X119.38Y-90.17
X119.38Y-94.615
X119.38Y-109.22
X120.0Y-100.0
X120.0Y-115.0
X120.0Y-120.0
X120.0Y-125.0
X120.65Y-10.16
X120.65Y-54.61
X120.65Y-104.775
X120.65Y-111.76
X121.22Y-38.1
X121.22Y-57.15
X121.22Y-68.58
X122.936Y-109.22
X123.19Y-8.89
X123.19Y-11.43
X123.19Y-16.51
X123.19Y-21.59
X123.19Y-26.67
X123.19Y-31.75
X123.19Y-33.528
X123.19Y-44.45
X123.19Y-49.53
X123.19Y-54.61
X123.19Y-59.69
X123.19Y-63.5
X123.19Y-71.12
X123.19Y-80.01
X123.19Y-85.09
X123.19Y-90.17
X123.19Y-94.615
X123.19Y-97.79
X123.19Y-102.87
X123.19Y-113.03
X123.19Y-118.11
X123.19Y-123.19
X125.0Y-125.0
X125.095Y-69.85
X125.334Y-72.644
X125.73Y-74.93
X125.73Y-77.47
X125.73Y-97.79
X125.984Y-33.782
X125.984Y-35.814
X127.0Y-53.34
X129.54Y-27.94
X129.54Y-66.04
X130.0Y-5.0
X130.0Y-10.0
X130.0Y-15.0
X130.0Y-35.0
X130.0Y-40.0
X130.0Y-45.0
X130.0Y-60.0
X130.0Y-125.0
X130.19Y-73.025
X130.81Y-73.66
X131.445Y-74.295
X131.445Y-76.2
X132.08Y-20.32
X132.08Y-27.94
X132.08Y-66.04
X132.08Y-74.93
X132.08Y-88.9
X132.08Y-95.25
X132.08Y-101.6
X132.08Y-104.14
X132.715Y-111.76
X132.715Y-115.57
X132.715Y-120.65
X132.715Y-125.095
X135.0Y-5.0
X135.0Y-10.0
X135.0Y-15.0
X135.0Y-20.0
X138.684Y-54.61
X138.998Y-129.272
X139.065Y-73.04
X139.065Y-128.27
X139.192Y-130.048
X139.7Y-22.86
X139.7Y-29.21
X139.7Y-35.56
X139.7Y-36.83
X139.7Y-88.9
X139.7Y-91.44
X140.0Y-5.0
X140.0Y-10.0
X140.0Y-15.0
X140.0Y-20.0
X140.208Y-130.048
X140.335Y-39.37
X140.335Y-90.17
X140.335Y-92.71
X140.97Y-93.98
X141.25Y-130.074
X141.478Y-83.82
X141.478Y-86.36
X141.605Y-95.25
X142.24Y-22.86
X142.24Y-29.21
X142.24Y-35.56
X142.24Y-48.26
X142.24Y-54.61
X142.24Y-60.96
X142.24Y-67.31
X142.24Y-76.2
X142.24Y-96.52
X142.24Y-130.048
X142.875Y-97.79
X143.256Y-130.048
X143.51Y-99.06
X144.145Y-100.33
X144.272Y-130.048
X144.78Y-22.86
X144.78Y-29.21
X144.78Y-35.56
X144.78Y-48.26
X144.78Y-54.61
X144.78Y-60.96
X144.78Y-67.31
X144.78Y-76.2
X144.78Y-106.68
X144.847Y-127.635
X145.0Y-5.0
X145.0Y-10.0
X145.0Y-15.0
X145.0Y-20.0
X145.0Y-40.0
X145.0Y-45.0
X145.0Y-85.0
X145.288Y-101.6
X145.288Y-103.886
X145.415Y-105.41
X145.415Y-127.0
X146.05Y-129.54
X146.685Y-113.03
X146.685Y-125.73
X147.32Y-22.86
X147.32Y-29.21
X147.32Y-35.56
X147.32Y-48.26
X147.32Y-54.61
X147.32Y-60.96
X147.32Y-67.31
X147.32Y-76.2
X149.796Y-28.638
X149.796Y-34.989
X149.796Y-47.688
X149.796Y-54.038
X149.796Y-60.389
X149.796Y-66.739
X149.86Y-76.2
X149.923Y-22.162
X150.0Y-5.0
X150.0Y-10.0
X150.0Y-15.0
X150.0Y-20.0
X150.0Y-40.0
X150.0Y-45.0
X150.0Y-85.0
X150.0Y-115.0
X150.0Y-120.0
X150.0Y-125.0
X150.0Y-130.0
X150.876Y-82.55
X150.876Y-85.09
X150.876Y-100.33
X150.876Y-102.87
X155.0Y-5.0
X155.0Y-10.0
X155.0Y-15.0
X155.0Y-20.0
X156.845Y-73.66
X156.845Y-129.54
X157.48Y-22.86
X157.48Y-29.21
X157.48Y-35.56
X157.48Y-48.26
X157.48Y-54.61
X157.48Y-60.96
X157.48Y-67.31
X157.48Y-104.14
X157.48Y-112.776
X158.496Y-83.566
X158.496Y-86.614
X158.496Y-101.6
X160.0Y-5.0
X160.0Y-10.0
X160.0Y-15.0
X160.0Y-20.0
X160.0Y-40.0
X160.0Y-45.0
X160.0Y-85.0
X160.0Y-115.0
X160.0Y-120.0
X160.0Y-125.0
X160.0Y-130.0
X160.02Y-22.86
X160.02Y-29.21
X160.02Y-35.56
X160.02Y-48.26
X160.02Y-54.61
X160.02Y-60.96
X160.02Y-67.31
X160.02Y-73.406
X160.02Y-76.2
X162.56Y-22.86
X162.56Y-29.21
X162.56Y-35.56
X162.56Y-48.26
X162.56Y-54.61
X162.56Y-60.96
X162.56Y-67.31
X162.56Y-73.406
X162.56Y-76.2
X165.0Y-5.0
X165.0Y-10.0
X165.0Y-15.0
X165.0Y-20.0
X165.0Y-40.0
X165.0Y-45.0
X165.0Y-85.0
X165.0Y-115.0
X165.0Y-120.0
X165.0Y-125.0
X165.0Y-130.0
X165.1Y-22.86
X165.1Y-29.21
X165.1Y-35.56
X165.1Y-48.26
X165.1Y-54.61
X165.1Y-60.96
X165.1Y-67.31
X165.1Y-73.406
X165.1Y-76.2
X167.45Y-28.765
X167.576Y-60.389
X167.64Y-73.406
X167.64Y-76.2
X167.64Y-112.522
X167.703Y-22.162
X167.703Y-34.861
X167.703Y-47.561
X167.703Y-53.911
X167.703Y-66.611
X168.275Y-129.54
X168.656Y-82.55
X168.656Y-85.09
X168.656Y-100.33
X168.656Y-103.124
X170.0Y-5.0
X170.0Y-10.0
X170.0Y-15.0
X170.0Y-20.0
X170.18Y-73.406
X172.72Y-73.406
X174.625Y-74.295
X175.0Y-5.0
X175.0Y-10.0
X175.0Y-15.0
X175.0Y-20.0
X175.0Y-40.0
X175.0Y-45.0
X175.0Y-115.0
X175.0Y-120.0
X175.0Y-125.0
X175.0Y-130.0
X175.26Y-22.86
X175.26Y-29.21
X175.26Y-35.56
X175.26Y-48.26
X175.26Y-54.61
X175.26Y-60.96
X175.26Y-67.31
X175.26Y-73.406
X175.26Y-104.14
X175.26Y-112.776
X175.768Y-83.566
X175.768Y-86.614
X175.768Y-101.6
X177.8Y-22.86
X177.8Y-29.21
X177.8Y-35.56
X177.8Y-54.61
X177.8Y-60.96
X177.8Y-67.31
X177.8Y-73.406
X177.8Y-76.2
X180.0Y-5.0
X180.0Y-10.0
X180.0Y-15.0
X180.0Y-20.0
X180.0Y-40.0
X180.0Y-45.0
X180.0Y-85.0
X180.0Y-115.0
X180.0Y-120.0
X180.0Y-125.0
X180.0Y-130.0
X180.34Y-22.86
X180.34Y-29.21
X180.34Y-35.56
X180.34Y-48.26
X180.34Y-54.61
X180.34Y-60.96
X180.34Y-67.31
X180.34Y-73.406
X180.34Y-76.2
X182.88Y-22.86
X182.88Y-29.21
X182.88Y-35.56
X182.88Y-48.26
X182.88Y-54.61
X182.88Y-60.96
X182.88Y-67.31
X182.88Y-73.406
X182.88Y-76.2
X185.0Y-5.0
X185.0Y-10.0
X185.0Y-15.0
X185.0Y-20.0
X185.0Y-40.0
X185.0Y-45.0
X185.0Y-85.0
X185.0Y-115.0
X185.0Y-120.0
X185.0Y-125.0
X185.0Y-130.0
X185.356Y-22.288
X185.356Y-60.389
X185.356Y-66.739
X185.42Y-73.406
X185.42Y-76.2
X185.483Y-28.511
X185.483Y-34.861
X185.483Y-47.561
X185.483Y-53.911
X185.674Y-112.268
X186.436Y-82.55
X186.436Y-85.09
X186.436Y-100.33
X186.436Y-103.124
X187.96Y-73.406
X190.0Y-5.0
X190.0Y-10.0
X190.0Y-15.0
X190.0Y-20.0
X190.5Y-73.406
X192.405Y-74.93
X193.04Y-73.406
X195.0Y-2.5
X195.0Y-10.0
X195.0Y-15.0
X195.0Y-20.0
X195.0Y-25.0
X195.0Y-30.0
X195.0Y-35.0
X195.0Y-40.0
X195.0Y-45.0
X195.0Y-50.0
X195.0Y-55.0
X195.0Y-60.0
X195.0Y-65.0
X195.0Y-70.0
X195.0Y-75.0
X195.0Y-80.0
X195.0Y-85.0
X195.0Y-90.0
X195.0Y-95.0
X195.0Y-100.0
X195.0Y-105.0
X195.0Y-110.0
X195.0Y-115.0
X195.0Y-120.0
X195.0Y-125.0
X195.0Y-132.5
X197.5Y-2.5
X197.5Y-5.0
X197.5Y-130.0
X197.5Y-132.5
T2
X2.54Y-25.4
X10.16Y-25.4
T3
X4.572Y-19.852
X4.572Y-22.352
X5.08Y-63.5
X5.08Y-71.12
X7.7Y-59.182
X12.272Y-125.222
X12.7Y-59.182
X12.7Y-63.5
X12.7Y-71.12
X14.264Y-120.396
X16.764Y-120.396
X17.272Y-125.222
X17.78Y-7.62
X17.78Y-10.16
X17.78Y-12.7
X17.78Y-15.24
X17.78Y-17.78
X17.78Y-20.32
X17.78Y-22.86
X17.78Y-25.4
X17.78Y-33.02
X17.78Y-35.56
X17.78Y-38.1
X17.78Y-40.64
X17.78Y-43.18
X17.78Y-45.72
X17.78Y-48.26
X17.78Y-63.5
X17.78Y-66.04
X17.78Y-68.58
X17.78Y-71.12
X17.78Y-73.66
X17.78Y-76.2
X17.78Y-78.74
X20.4Y-4.572
X20.4Y-29.972
X20.4Y-60.452
X25.4Y-4.572
X25.4Y-7.62
X25.4Y-10.16
X25.4Y-12.7
X25.4Y-15.24
X25.4Y-17.78
X25.4Y-20.32
X25.4Y-22.86
X25.4Y-25.4
X25.4Y-29.972
X25.4Y-33.02
X25.4Y-35.56
X25.4Y-38.1
X25.4Y-40.64
X25.4Y-43.18
X25.4Y-45.72
X25.4Y-48.26
X25.4Y-60.452
X25.4Y-63.5
X25.4Y-66.04
X25.4Y-68.58
X25.4Y-71.12
X25.4Y-73.66
X25.4Y-76.2
X25.4Y-78.74
X33.02Y-7.62
X33.02Y-10.16
X33.02Y-12.7
X33.02Y-15.24
X33.02Y-17.78
X33.02Y-20.32
X33.02Y-22.86
X33.02Y-25.4
X33.02Y-33.02
X33.02Y-35.56
X33.02Y-38.1
X33.02Y-40.64
X33.02Y-43.18
X33.02Y-45.72
X33.02Y-48.26
X33.02Y-63.5
X33.02Y-66.04
X33.02Y-68.58
X33.02Y-71.12
X33.02Y-73.66
X33.02Y-76.2
X33.02Y-78.74
X33.02Y-81.28
X33.02Y-83.82
X33.02Y-86.36
X33.02Y-88.9
X33.02Y-91.44
X33.02Y-93.98
X33.02Y-96.52
X33.02Y-99.06
X33.02Y-101.6
X33.02Y-104.14
X33.02Y-106.68
X33.02Y-109.22
X33.02Y-111.76
X33.02Y-114.3
X33.02Y-116.84
X33.02Y-119.38
X33.02Y-121.92
X35.64Y-4.572
X35.64Y-29.972
X40.64Y-4.572
X40.64Y-7.62
X40.64Y-10.16
X40.64Y-12.7
X40.64Y-15.24
X40.64Y-17.78
X40.64Y-20.32
X40.64Y-22.86
X40.64Y-25.4
X40.64Y-29.972
X40.64Y-33.02
X40.64Y-35.56
X40.64Y-38.1
X40.64Y-40.64
X40.64Y-43.18
X40.64Y-45.72
X40.64Y-48.26
X43.26Y-60.325
X48.26Y-7.62
X48.26Y-10.16
X48.26Y-12.7
X48.26Y-15.24
X48.26Y-17.78
X48.26Y-20.32
X48.26Y-22.86
X48.26Y-25.4
X48.26Y-33.02
X48.26Y-35.56
X48.26Y-38.1
X48.26Y-40.64
X48.26Y-43.18
X48.26Y-45.72
X48.26Y-48.26
X48.26Y-60.325
X48.26Y-63.5
X48.26Y-66.04
X48.26Y-68.58
X48.26Y-71.12
X48.26Y-73.66
X48.26Y-76.2
X48.26Y-78.74
X48.26Y-81.28
X48.26Y-83.82
X48.26Y-86.36
X48.26Y-88.9
X48.26Y-91.44
X48.26Y-93.98
X48.26Y-96.52
X48.26Y-99.06
X48.26Y-101.6
X48.26Y-104.14
X48.26Y-106.68
X48.26Y-109.22
X48.26Y-111.76
X48.26Y-114.3
X48.26Y-116.84
X48.26Y-119.38
X48.26Y-121.92
X50.88Y-4.572
X50.88Y-29.972
X55.88Y-4.572
X55.88Y-7.62
X55.88Y-10.16
X55.88Y-12.7
X55.88Y-15.24
X55.88Y-17.78
X55.88Y-20.32
X55.88Y-22.86
X55.88Y-25.4
X55.88Y-29.972
X55.88Y-33.02
X55.88Y-35.56
X55.88Y-38.1
X55.88Y-40.64
X55.88Y-43.18
X55.88Y-45.72
X55.88Y-48.26
X63.5Y-7.62
X63.5Y-10.16
X63.5Y-12.7
X63.5Y-15.24
X63.5Y-17.78
X63.5Y-20.32
X63.5Y-22.86
X63.5Y-25.4
X63.5Y-33.02
X63.5Y-35.56
X63.5Y-38.1
X63.5Y-40.64
X63.5Y-43.18
X63.5Y-45.72
X63.5Y-48.26
X63.5Y-58.42
X63.5Y-60.96
X63.5Y-63.5
X63.5Y-66.04
X63.5Y-68.58
X63.5Y-71.12
X63.5Y-73.66
X63.5Y-76.2
X63.5Y-83.82
X63.5Y-86.36
X63.5Y-88.9
X63.5Y-91.44
X63.5Y-93.98
X63.5Y-96.52
X63.5Y-99.06
X63.5Y-101.6
X63.5Y-104.14
X63.5Y-106.68
X63.5Y-109.22
X63.5Y-111.76
X63.5Y-114.3
X63.5Y-116.84
X63.5Y-119.38
X63.5Y-121.92
X66.12Y-4.572
X66.12Y-29.972
X66.12Y-55.372
X71.12Y-4.572
X71.12Y-7.62
X71.12Y-10.16
X71.12Y-12.7
X71.12Y-15.24
X71.12Y-17.78
X71.12Y-20.32
X71.12Y-22.86
X71.12Y-25.4
X71.12Y-29.972
X71.12Y-33.02
X71.12Y-35.56
X71.12Y-38.1
X71.12Y-40.64
X71.12Y-43.18
X71.12Y-45.72
X71.12Y-48.26
X71.12Y-55.372
X71.12Y-58.42
X71.12Y-60.96
X71.12Y-63.5
X71.12Y-66.04
X71.12Y-68.58
X71.12Y-71.12
X71.12Y-73.66
X71.12Y-76.2
X73.74Y-80.772
X78.74Y-80.772
X78.74Y-83.82
X78.74Y-86.36
X78.74Y-88.9
X78.74Y-91.44
X78.74Y-93.98
X78.74Y-96.52
X78.74Y-99.06
X78.74Y-101.6
X78.74Y-104.14
X78.74Y-106.68
X78.74Y-109.22
X78.74Y-111.76
X78.74Y-114.3
X78.74Y-116.84
X78.74Y-119.38
X78.74Y-121.92
X83.82Y-7.62
X83.82Y-10.16
X83.82Y-12.7
X83.82Y-15.24
X83.82Y-17.78
X83.82Y-20.32
X83.82Y-22.86
X83.82Y-25.4
X83.82Y-27.94
X83.82Y-30.48
X83.82Y-33.02
X83.82Y-35.56
X83.82Y-38.1
X83.82Y-40.64
X83.82Y-43.18
X83.82Y-45.72
X83.82Y-48.26
X83.82Y-50.8
X83.82Y-53.34
X83.82Y-55.88
X83.82Y-58.42
X83.82Y-60.96
X83.82Y-63.5
X83.82Y-66.04
X83.82Y-88.9
X83.82Y-91.44
X83.82Y-93.98
X83.82Y-96.52
X83.82Y-99.06
X83.82Y-101.6
X83.82Y-104.14
X83.82Y-106.68
X83.82Y-109.22
X83.82Y-111.76
X83.82Y-114.3
X83.82Y-116.84
X83.82Y-119.38
X83.82Y-121.92
X94.06Y-4.572
X94.06Y-85.852
X99.06Y-4.572
X99.06Y-7.62
X99.06Y-10.16
X99.06Y-12.7
X99.06Y-15.24
X99.06Y-17.78
X99.06Y-20.32
X99.06Y-22.86
X99.06Y-25.4
X99.06Y-27.94
X99.06Y-30.48
X99.06Y-33.02
X99.06Y-35.56
X99.06Y-38.1
X99.06Y-40.64
X99.06Y-43.18
X99.06Y-45.72
X99.06Y-48.26
X99.06Y-50.8
X99.06Y-53.34
X99.06Y-55.88
X99.06Y-58.42
X99.06Y-60.96
X99.06Y-63.5
X99.06Y-66.04
X99.06Y-85.852
X99.06Y-88.9
X99.06Y-91.44
X99.06Y-93.98
X99.06Y-96.52
X99.06Y-99.06
X99.06Y-101.6
X99.06Y-104.14
X99.06Y-106.68
X99.06Y-109.22
X99.06Y-111.76
X99.06Y-114.3
X99.06Y-116.84
X99.06Y-119.38
X99.06Y-121.92
X116.84Y-7.62
X116.84Y-10.16
X116.84Y-12.7
X116.84Y-15.24
X116.84Y-17.78
X116.84Y-20.32
X116.84Y-22.86
X116.84Y-25.4
X116.84Y-27.94
X116.84Y-30.48
X116.84Y-38.1
X116.84Y-40.64
X116.84Y-43.18
X116.84Y-45.72
X116.84Y-48.26
X116.84Y-50.8
X116.84Y-53.34
X116.84Y-55.88
X116.84Y-58.42
X116.84Y-60.96
X116.84Y-68.58
X116.84Y-71.12
X116.84Y-73.66
X116.84Y-76.2
X116.84Y-78.74
X116.84Y-81.28
X116.84Y-83.82
X116.84Y-86.36
X116.84Y-88.9
X116.84Y-91.44
X116.84Y-99.06
X116.84Y-101.6
X116.84Y-104.14
X116.84Y-106.68
X116.84Y-109.22
X116.84Y-111.76
X116.84Y-114.3
X116.84Y-116.84
X116.84Y-119.38
X116.84Y-121.92
X119.46Y-4.572
X119.46Y-35.052
X119.46Y-65.532
X119.46Y-96.012
X124.46Y-4.572
X124.46Y-7.62
X124.46Y-10.16
X124.46Y-12.7
X124.46Y-15.24
X124.46Y-17.78
X124.46Y-20.32
X124.46Y-22.86
X124.46Y-25.4
X124.46Y-27.94
X124.46Y-30.48
X124.46Y-35.052
X124.46Y-38.1
X124.46Y-40.64
X124.46Y-43.18
X124.46Y-45.72
X124.46Y-48.26
X124.46Y-50.8
X124.46Y-53.34
X124.46Y-55.88
X124.46Y-58.42
X124.46Y-60.96
X124.46Y-65.532
X124.46Y-68.58
X124.46Y-71.12
X124.46Y-73.66
X124.46Y-76.2
X124.46Y-78.74
X124.46Y-81.28
X124.46Y-83.82
X124.46Y-86.36
X124.46Y-88.9
X124.46Y-91.44
X124.46Y-96.012
X124.46Y-99.06
X124.46Y-101.6
X124.46Y-104.14
X124.46Y-106.68
X124.46Y-109.22
X124.46Y-111.76
X124.46Y-114.3
X124.46Y-116.84
X124.46Y-119.38
X124.46Y-121.92
T4
X2.54Y-38.1
X2.54Y-45.72
X2.54Y-53.34
X5.08Y-38.1
X5.08Y-45.72
X5.08Y-53.34
T5
X6.588Y-84.02
X6.588Y-86.52
X6.588Y-89.02
X6.588Y-91.52
X6.588Y-94.02
X6.588Y-96.52
T6
X11.668Y-103.124
X14.168Y-103.124
X16.24Y-83.98
X16.24Y-86.52
X16.24Y-89.06
X16.24Y-91.6
X16.24Y-94.14
X16.24Y-96.68
X134.62Y-22.86
X134.62Y-25.4
X134.62Y-27.94
X134.62Y-30.48
X134.62Y-33.02
X134.62Y-35.56
X134.62Y-38.1
X134.62Y-40.64
X134.62Y-43.18
X134.62Y-45.72
X134.62Y-48.26
X134.62Y-50.8
X134.62Y-53.34
X134.62Y-55.88
X134.62Y-58.42
X134.62Y-60.96
X134.62Y-63.5
X134.62Y-66.04
X134.62Y-68.58
X134.62Y-71.12
X134.62Y-76.2
X134.62Y-78.74
X134.62Y-81.28
X134.62Y-83.82
X134.62Y-86.36
X134.62Y-88.9
X134.62Y-91.44
X134.62Y-93.98
X134.62Y-96.52
X134.62Y-99.06
X134.62Y-101.6
X134.62Y-104.14
X134.62Y-106.68
X134.62Y-109.22
X134.62Y-111.76
X134.62Y-114.3
X134.62Y-116.84
X134.62Y-119.38
X134.62Y-121.92
X134.62Y-124.46
X137.16Y-22.86
X137.16Y-25.4
X137.16Y-27.94
X137.16Y-30.48
X137.16Y-33.02
X137.16Y-35.56
X137.16Y-38.1
X137.16Y-40.64
X137.16Y-43.18
X137.16Y-45.72
X137.16Y-48.26
X137.16Y-50.8
X137.16Y-53.34
X137.16Y-55.88
X137.16Y-58.42
X137.16Y-60.96
X137.16Y-63.5
X137.16Y-66.04
X137.16Y-68.58
X137.16Y-71.12
X137.16Y-76.2
X137.16Y-78.74
X137.16Y-81.28
X137.16Y-83.82
X137.16Y-86.36
X137.16Y-88.9
X137.16Y-91.44
X137.16Y-93.98
X137.16Y-96.52
X137.16Y-99.06
X137.16Y-101.6
X137.16Y-104.14
X137.16Y-106.68
X137.16Y-109.22
X137.16Y-111.76
X137.16Y-114.3
X137.16Y-116.84
X137.16Y-119.38
X137.16Y-121.92
X137.16Y-124.46
X152.4Y-22.86
X152.4Y-25.4
X152.4Y-27.94
X152.4Y-30.48
X152.4Y-33.02
X152.4Y-35.56
X152.4Y-38.1
X152.4Y-40.64
X152.4Y-43.18
X152.4Y-45.72
X152.4Y-48.26
X152.4Y-50.8
X152.4Y-53.34
X152.4Y-55.88
X152.4Y-58.42
X152.4Y-60.96
X152.4Y-63.5
X152.4Y-66.04
X152.4Y-68.58
X152.4Y-71.12
X152.4Y-76.2
X152.4Y-78.74
X152.4Y-81.28
X152.4Y-83.82
X152.4Y-86.36
X152.4Y-88.9
X152.4Y-91.44
X152.4Y-93.98
X152.4Y-96.52
X152.4Y-99.06
X152.4Y-101.6
X152.4Y-104.14
X152.4Y-106.68
X152.4Y-109.22
X152.4Y-111.76
X152.4Y-114.3
X152.4Y-116.84
X152.4Y-119.38
X152.4Y-121.92
X152.4Y-124.46
X154.94Y-22.86
X154.94Y-25.4
X154.94Y-27.94
X154.94Y-30.48
X154.94Y-33.02
X154.94Y-35.56
X154.94Y-38.1
X154.94Y-40.64
X154.94Y-43.18
X154.94Y-45.72
X154.94Y-48.26
X154.94Y-50.8
X154.94Y-53.34
X154.94Y-55.88
X154.94Y-58.42
X154.94Y-60.96
X154.94Y-63.5
X154.94Y-66.04
X154.94Y-68.58
X154.94Y-71.12
X154.94Y-76.2
X154.94Y-78.74
X154.94Y-81.28
X154.94Y-83.82
X154.94Y-86.36
X154.94Y-88.9
X154.94Y-91.44
X154.94Y-93.98
X154.94Y-96.52
X154.94Y-99.06
X154.94Y-101.6
X154.94Y-104.14
X154.94Y-106.68
X154.94Y-109.22
X154.94Y-111.76
X154.94Y-114.3
X154.94Y-116.84
X154.94Y-119.38
X154.94Y-121.92
X154.94Y-124.46
X170.18Y-22.86
X170.18Y-25.4
X170.18Y-27.94
X170.18Y-30.48
X170.18Y-33.02
X170.18Y-35.56
X170.18Y-38.1
X170.18Y-40.64
X170.18Y-43.18
X170.18Y-45.72
X170.18Y-48.26
X170.18Y-50.8
X170.18Y-53.34
X170.18Y-55.88
X170.18Y-58.42
X170.18Y-60.96
X170.18Y-63.5
X170.18Y-66.04
X170.18Y-68.58
X170.18Y-71.12
X170.18Y-76.2
X170.18Y-78.74
X170.18Y-81.28
X170.18Y-83.82
X170.18Y-86.36
X170.18Y-88.9
X170.18Y-91.44
X170.18Y-93.98
X170.18Y-96.52
X170.18Y-99.06
X170.18Y-101.6
X170.18Y-104.14
X170.18Y-106.68
X170.18Y-109.22
X170.18Y-111.76
X170.18Y-114.3
X170.18Y-116.84
X170.18Y-119.38
X170.18Y-121.92
X170.18Y-124.46
X172.72Y-22.86
X172.72Y-25.4
X172.72Y-27.94
X172.72Y-30.48
X172.72Y-33.02
X172.72Y-35.56
X172.72Y-38.1
X172.72Y-40.64
X172.72Y-43.18
X172.72Y-45.72
X172.72Y-48.26
X172.72Y-50.8
X172.72Y-53.34
X172.72Y-55.88
X172.72Y-58.42
X172.72Y-60.96
X172.72Y-63.5
X172.72Y-66.04
X172.72Y-68.58
X172.72Y-71.12
X172.72Y-76.2
X172.72Y-78.74
X172.72Y-81.28
X172.72Y-83.82
X172.72Y-86.36
X172.72Y-88.9
X172.72Y-91.44
X172.72Y-93.98
X172.72Y-96.52
X172.72Y-99.06
X172.72Y-101.6
X172.72Y-104.14
X172.72Y-106.68
X172.72Y-109.22
X172.72Y-111.76
X172.72Y-114.3
X172.72Y-116.84
X172.72Y-119.38
X172.72Y-121.92
X172.72Y-124.46
X187.96Y-22.86
X187.96Y-25.4
X187.96Y-27.94
X187.96Y-30.48
X187.96Y-33.02
X187.96Y-35.56
X187.96Y-38.1
X187.96Y-40.64
X187.96Y-43.18
X187.96Y-45.72
X187.96Y-48.26
X187.96Y-50.8
X187.96Y-53.34
X187.96Y-55.88
X187.96Y-58.42
X187.96Y-60.96
X187.96Y-63.5
X187.96Y-66.04
X187.96Y-68.58
X187.96Y-71.12
X187.96Y-76.2
X187.96Y-78.74
X187.96Y-81.28
X187.96Y-83.82
X187.96Y-86.36
X187.96Y-88.9
X187.96Y-91.44
X187.96Y-93.98
X187.96Y-96.52
X187.96Y-99.06
X187.96Y-101.6
X187.96Y-104.14
X187.96Y-106.68
X187.96Y-109.22
X187.96Y-111.76
X187.96Y-114.3
X187.96Y-116.84
X187.96Y-119.38
X187.96Y-121.92
X187.96Y-124.46
X190.5Y-22.86
X190.5Y-25.4
X190.5Y-27.94
X190.5Y-30.48
X190.5Y-33.02
X190.5Y-35.56
X190.5Y-38.1
X190.5Y-40.64
X190.5Y-43.18
X190.5Y-45.72
X190.5Y-48.26
X190.5Y-50.8
X190.5Y-53.34
X190.5Y-55.88
X190.5Y-58.42
X190.5Y-60.96
X190.5Y-63.5
X190.5Y-66.04
X190.5Y-68.58
X190.5Y-71.12
X190.5Y-76.2
X190.5Y-78.74
X190.5Y-81.28
X190.5Y-83.82
X190.5Y-86.36
X190.5Y-88.9
X190.5Y-91.44
X190.5Y-93.98
X190.5Y-96.52
X190.5Y-99.06
X190.5Y-101.6
X190.5Y-104.14
X190.5Y-106.68
X190.5Y-109.22
X190.5Y-111.76
X190.5Y-114.3
X190.5Y-116.84
X190.5Y-119.38
X190.5Y-121.92
X190.5Y-124.46
T7
X3.66Y-28.52
X3.66Y-33.02
X10.16Y-28.52
X10.16Y-33.02
T6
G00X10.0Y-109.0
M15
G01X10.0Y-111.0
M16
G05
G00X12.0Y-114.7
M15
G01X14.0Y-114.7
M16
G05
G00X16.0Y-109.0
M15
G01X16.0Y-111.0
M16
G05
M30
