%TF.GenerationSoftware,KiCad,Pcbnew,9.0.6*%
%TF.CreationDate,2026-04-23T00:03:36+09:00*%
%TF.ProjectId,68k8-boad,36386b38-2d62-46f6-9164-2e6b69636164,rev?*%
%TF.SameCoordinates,Original*%
%TF.FileFunction,Soldermask,Top*%
%TF.FilePolarity,Negative*%
%FSLAX46Y46*%
G04 Gerber Fmt 4.6, Leading zero omitted, Abs format (unit mm)*
G04 Created by KiCad (PCBNEW 9.0.6) date 2026-04-23 00:03:36*
%MOMM*%
%LPD*%
G01*
G04 APERTURE LIST*
G04 Aperture macros list*
%AMRoundRect*
0 Rectangle with rounded corners*
0 $1 Rounding radius*
0 $2 $3 $4 $5 $6 $7 $8 $9 X,Y pos of 4 corners*
0 Add a 4 corners polygon primitive as box body*
4,1,4,$2,$3,$4,$5,$6,$7,$8,$9,$2,$3,0*
0 Add four circle primitives for the rounded corners*
1,1,$1+$1,$2,$3*
1,1,$1+$1,$4,$5*
1,1,$1+$1,$6,$7*
1,1,$1+$1,$8,$9*
0 Add four rect primitives between the rounded corners*
20,1,$1+$1,$2,$3,$4,$5,0*
20,1,$1+$1,$4,$5,$6,$7,0*
20,1,$1+$1,$6,$7,$8,$9,0*
20,1,$1+$1,$8,$9,$2,$3,0*%
G04 Aperture macros list end*
%ADD10R,1.800000X1.800000*%
%ADD11C,1.800000*%
%ADD12RoundRect,0.200000X0.200000X0.275000X-0.200000X0.275000X-0.200000X-0.275000X0.200000X-0.275000X0*%
%ADD13RoundRect,0.250000X-0.550000X-0.550000X0.550000X-0.550000X0.550000X0.550000X-0.550000X0.550000X0*%
%ADD14C,1.600000*%
%ADD15RoundRect,0.200000X-0.200000X-0.275000X0.200000X-0.275000X0.200000X0.275000X-0.200000X0.275000X0*%
%ADD16C,3.200000*%
%ADD17RoundRect,0.250000X0.550000X-0.550000X0.550000X0.550000X-0.550000X0.550000X-0.550000X-0.550000X0*%
%ADD18RoundRect,0.250000X-0.725000X0.600000X-0.725000X-0.600000X0.725000X-0.600000X0.725000X0.600000X0*%
%ADD19O,1.950000X1.700000*%
%ADD20RoundRect,0.150000X-0.512500X-0.150000X0.512500X-0.150000X0.512500X0.150000X-0.512500X0.150000X0*%
%ADD21RoundRect,0.250000X0.550000X0.550000X-0.550000X0.550000X-0.550000X-0.550000X0.550000X-0.550000X0*%
%ADD22R,1.700000X1.700000*%
%ADD23C,1.700000*%
%ADD24R,1.600000X1.600000*%
%ADD25RoundRect,0.250001X0.499999X0.499999X-0.499999X0.499999X-0.499999X-0.499999X0.499999X-0.499999X0*%
%ADD26C,1.500000*%
%ADD27R,3.500000X3.500000*%
%ADD28RoundRect,0.750000X-0.750000X-1.000000X0.750000X-1.000000X0.750000X1.000000X-0.750000X1.000000X0*%
%ADD29RoundRect,0.875000X-0.875000X-0.875000X0.875000X-0.875000X0.875000X0.875000X-0.875000X0.875000X0*%
%ADD30RoundRect,0.250000X0.600000X0.750000X-0.600000X0.750000X-0.600000X-0.750000X0.600000X-0.750000X0*%
%ADD31O,1.700000X2.000000*%
%ADD32C,2.000000*%
G04 APERTURE END LIST*
D10*
%TO.C,D4*%
X5080000Y-38100000D03*
D11*
X2540000Y-38100000D03*
%TD*%
D12*
%TO.C,R21*%
X11176000Y-45720000D03*
X9526000Y-45720000D03*
%TD*%
D13*
%TO.C,U4*%
X63500000Y-33020000D03*
D14*
X63500000Y-35560000D03*
X63500000Y-38100000D03*
X63500000Y-40640000D03*
X63500000Y-43180000D03*
X63500000Y-45720000D03*
X63500000Y-48260000D03*
X71120000Y-48260000D03*
X71120000Y-45720000D03*
X71120000Y-43180000D03*
X71120000Y-40640000D03*
X71120000Y-38100000D03*
X71120000Y-35560000D03*
X71120000Y-33020000D03*
%TD*%
D12*
%TO.C,R4*%
X102742000Y-30480000D03*
X101092000Y-30480000D03*
%TD*%
%TO.C,R15*%
X51942000Y-111760000D03*
X50292000Y-111760000D03*
%TD*%
D14*
%TO.C,C6*%
X25400000Y-60452000D03*
X20400000Y-60452000D03*
%TD*%
D10*
%TO.C,D3*%
X5080000Y-45720000D03*
D11*
X2540000Y-45720000D03*
%TD*%
D12*
%TO.C,R12*%
X51942000Y-119380000D03*
X50292000Y-119380000D03*
%TD*%
D14*
%TO.C,C15*%
X78740000Y-80772000D03*
X73740000Y-80772000D03*
%TD*%
D13*
%TO.C,U8*%
X63500000Y-7620000D03*
D14*
X63500000Y-10160000D03*
X63500000Y-12700000D03*
X63500000Y-15240000D03*
X63500000Y-17780000D03*
X63500000Y-20320000D03*
X63500000Y-22860000D03*
X63500000Y-25400000D03*
X71120000Y-25400000D03*
X71120000Y-22860000D03*
X71120000Y-20320000D03*
X71120000Y-17780000D03*
X71120000Y-15240000D03*
X71120000Y-12700000D03*
X71120000Y-10160000D03*
X71120000Y-7620000D03*
%TD*%
D12*
%TO.C,R3*%
X102742000Y-48260000D03*
X101092000Y-48260000D03*
%TD*%
D14*
%TO.C,C12*%
X71120000Y-4572000D03*
X66120000Y-4572000D03*
%TD*%
D15*
%TO.C,R17*%
X59818000Y-10160000D03*
X61468000Y-10160000D03*
%TD*%
D16*
%TO.C,H1*%
X5000000Y-5000000D03*
%TD*%
D17*
%TO.C,C1*%
X4572000Y-22352000D03*
D14*
X4572000Y-19852000D03*
%TD*%
%TO.C,C5*%
X25400000Y-29972000D03*
X20400000Y-29972000D03*
%TD*%
%TO.C,C4*%
X25400000Y-4572000D03*
X20400000Y-4572000D03*
%TD*%
D18*
%TO.C,J10*%
X6588000Y-84020000D03*
D19*
X6588000Y-86520000D03*
X6588000Y-89020000D03*
X6588000Y-91520000D03*
X6588000Y-94020000D03*
X6588000Y-96520000D03*
%TD*%
D14*
%TO.C,C21*%
X124460000Y-96012000D03*
X119460000Y-96012000D03*
%TD*%
D20*
%TO.C,U15*%
X8393000Y-16388000D03*
X8393000Y-17338000D03*
X8393000Y-18288000D03*
X10668000Y-18288000D03*
X10668000Y-16388000D03*
%TD*%
D13*
%TO.C,U3*%
X63500000Y-83820000D03*
D14*
X63500000Y-86360000D03*
X63500000Y-88900000D03*
X63500000Y-91440000D03*
X63500000Y-93980000D03*
X63500000Y-96520000D03*
X63500000Y-99060000D03*
X63500000Y-101600000D03*
X63500000Y-104140000D03*
X63500000Y-106680000D03*
X63500000Y-109220000D03*
X63500000Y-111760000D03*
X63500000Y-114300000D03*
X63500000Y-116840000D03*
X63500000Y-119380000D03*
X63500000Y-121920000D03*
X78740000Y-121920000D03*
X78740000Y-119380000D03*
X78740000Y-116840000D03*
X78740000Y-114300000D03*
X78740000Y-111760000D03*
X78740000Y-109220000D03*
X78740000Y-106680000D03*
X78740000Y-104140000D03*
X78740000Y-101600000D03*
X78740000Y-99060000D03*
X78740000Y-96520000D03*
X78740000Y-93980000D03*
X78740000Y-91440000D03*
X78740000Y-88900000D03*
X78740000Y-86360000D03*
X78740000Y-83820000D03*
%TD*%
%TO.C,C9*%
X48260000Y-60325000D03*
X43260000Y-60325000D03*
%TD*%
%TO.C,C7*%
X40640000Y-4572000D03*
X35640000Y-4572000D03*
%TD*%
%TO.C,C14*%
X71120000Y-55372000D03*
X66120000Y-55372000D03*
%TD*%
D21*
%TO.C,C2*%
X16764000Y-120396000D03*
D14*
X14264000Y-120396000D03*
%TD*%
D15*
%TO.C,R9*%
X29338000Y-119380000D03*
X30988000Y-119380000D03*
%TD*%
D12*
%TO.C,R16*%
X74802000Y-17780000D03*
X73152000Y-17780000D03*
%TD*%
D22*
%TO.C,J8*%
X190500000Y-76200000D03*
D23*
X187960000Y-76200000D03*
X190500000Y-78740000D03*
X187960000Y-78740000D03*
X190500000Y-81280000D03*
X187960000Y-81280000D03*
X190500000Y-83820000D03*
X187960000Y-83820000D03*
X190500000Y-86360000D03*
X187960000Y-86360000D03*
X190500000Y-88900000D03*
X187960000Y-88900000D03*
X190500000Y-91440000D03*
X187960000Y-91440000D03*
X190500000Y-93980000D03*
X187960000Y-93980000D03*
X190500000Y-96520000D03*
X187960000Y-96520000D03*
X190500000Y-99060000D03*
X187960000Y-99060000D03*
X190500000Y-101600000D03*
X187960000Y-101600000D03*
X190500000Y-104140000D03*
X187960000Y-104140000D03*
X190500000Y-106680000D03*
X187960000Y-106680000D03*
X190500000Y-109220000D03*
X187960000Y-109220000D03*
X190500000Y-111760000D03*
X187960000Y-111760000D03*
X190500000Y-114300000D03*
X187960000Y-114300000D03*
X190500000Y-116840000D03*
X187960000Y-116840000D03*
X190500000Y-119380000D03*
X187960000Y-119380000D03*
X190500000Y-121920000D03*
X187960000Y-121920000D03*
X190500000Y-124460000D03*
X187960000Y-124460000D03*
%TD*%
D24*
%TO.C,Y1*%
X5080000Y-63500000D03*
D14*
X5080000Y-71120000D03*
X12700000Y-71120000D03*
X12700000Y-63500000D03*
%TD*%
D25*
%TO.C,D1*%
X10160000Y-25400000D03*
D26*
X2540000Y-25400000D03*
%TD*%
D14*
%TO.C,C20*%
X124460000Y-65532000D03*
X119460000Y-65532000D03*
%TD*%
D22*
%TO.C,J7*%
X190500000Y-22860000D03*
D23*
X187960000Y-22860000D03*
X190500000Y-25400000D03*
X187960000Y-25400000D03*
X190500000Y-27940000D03*
X187960000Y-27940000D03*
X190500000Y-30480000D03*
X187960000Y-30480000D03*
X190500000Y-33020000D03*
X187960000Y-33020000D03*
X190500000Y-35560000D03*
X187960000Y-35560000D03*
X190500000Y-38100000D03*
X187960000Y-38100000D03*
X190500000Y-40640000D03*
X187960000Y-40640000D03*
X190500000Y-43180000D03*
X187960000Y-43180000D03*
X190500000Y-45720000D03*
X187960000Y-45720000D03*
X190500000Y-48260000D03*
X187960000Y-48260000D03*
X190500000Y-50800000D03*
X187960000Y-50800000D03*
X190500000Y-53340000D03*
X187960000Y-53340000D03*
X190500000Y-55880000D03*
X187960000Y-55880000D03*
X190500000Y-58420000D03*
X187960000Y-58420000D03*
X190500000Y-60960000D03*
X187960000Y-60960000D03*
X190500000Y-63500000D03*
X187960000Y-63500000D03*
X190500000Y-66040000D03*
X187960000Y-66040000D03*
X190500000Y-68580000D03*
X187960000Y-68580000D03*
X190500000Y-71120000D03*
X187960000Y-71120000D03*
%TD*%
D10*
%TO.C,D2*%
X5080000Y-53340000D03*
D11*
X2540000Y-53340000D03*
%TD*%
D14*
%TO.C,C18*%
X124460000Y-4572000D03*
X119460000Y-4572000D03*
%TD*%
D12*
%TO.C,R1*%
X102742000Y-50800000D03*
X101092000Y-50800000D03*
%TD*%
D13*
%TO.C,U6*%
X33020000Y-63500000D03*
D14*
X33020000Y-66040000D03*
X33020000Y-68580000D03*
X33020000Y-71120000D03*
X33020000Y-73660000D03*
X33020000Y-76200000D03*
X33020000Y-78740000D03*
X33020000Y-81280000D03*
X33020000Y-83820000D03*
X33020000Y-86360000D03*
X33020000Y-88900000D03*
X33020000Y-91440000D03*
X33020000Y-93980000D03*
X33020000Y-96520000D03*
X33020000Y-99060000D03*
X33020000Y-101600000D03*
X33020000Y-104140000D03*
X33020000Y-106680000D03*
X33020000Y-109220000D03*
X33020000Y-111760000D03*
X33020000Y-114300000D03*
X33020000Y-116840000D03*
X33020000Y-119380000D03*
X33020000Y-121920000D03*
X48260000Y-121920000D03*
X48260000Y-119380000D03*
X48260000Y-116840000D03*
X48260000Y-114300000D03*
X48260000Y-111760000D03*
X48260000Y-109220000D03*
X48260000Y-106680000D03*
X48260000Y-104140000D03*
X48260000Y-101600000D03*
X48260000Y-99060000D03*
X48260000Y-96520000D03*
X48260000Y-93980000D03*
X48260000Y-91440000D03*
X48260000Y-88900000D03*
X48260000Y-86360000D03*
X48260000Y-83820000D03*
X48260000Y-81280000D03*
X48260000Y-78740000D03*
X48260000Y-76200000D03*
X48260000Y-73660000D03*
X48260000Y-71120000D03*
X48260000Y-68580000D03*
X48260000Y-66040000D03*
X48260000Y-63500000D03*
%TD*%
%TO.C,C17*%
X99060000Y-85852000D03*
X94060000Y-85852000D03*
%TD*%
D13*
%TO.C,U1*%
X83820000Y-7620000D03*
D14*
X83820000Y-10160000D03*
X83820000Y-12700000D03*
X83820000Y-15240000D03*
X83820000Y-17780000D03*
X83820000Y-20320000D03*
X83820000Y-22860000D03*
X83820000Y-25400000D03*
X83820000Y-27940000D03*
X83820000Y-30480000D03*
X83820000Y-33020000D03*
X83820000Y-35560000D03*
X83820000Y-38100000D03*
X83820000Y-40640000D03*
X83820000Y-43180000D03*
X83820000Y-45720000D03*
X83820000Y-48260000D03*
X83820000Y-50800000D03*
X83820000Y-53340000D03*
X83820000Y-55880000D03*
X83820000Y-58420000D03*
X83820000Y-60960000D03*
X83820000Y-63500000D03*
X83820000Y-66040000D03*
X99060000Y-66040000D03*
X99060000Y-63500000D03*
X99060000Y-60960000D03*
X99060000Y-58420000D03*
X99060000Y-55880000D03*
X99060000Y-53340000D03*
X99060000Y-50800000D03*
X99060000Y-48260000D03*
X99060000Y-45720000D03*
X99060000Y-43180000D03*
X99060000Y-40640000D03*
X99060000Y-38100000D03*
X99060000Y-35560000D03*
X99060000Y-33020000D03*
X99060000Y-30480000D03*
X99060000Y-27940000D03*
X99060000Y-25400000D03*
X99060000Y-22860000D03*
X99060000Y-20320000D03*
X99060000Y-17780000D03*
X99060000Y-15240000D03*
X99060000Y-12700000D03*
X99060000Y-10160000D03*
X99060000Y-7620000D03*
%TD*%
D15*
%TO.C,R8*%
X29338000Y-116840000D03*
X30988000Y-116840000D03*
%TD*%
D12*
%TO.C,R11*%
X51942000Y-121920000D03*
X50292000Y-121920000D03*
%TD*%
D14*
%TO.C,C8*%
X40640000Y-29972000D03*
X35640000Y-29972000D03*
%TD*%
D12*
%TO.C,R2*%
X102742000Y-45720000D03*
X101092000Y-45720000D03*
%TD*%
D13*
%TO.C,U18*%
X116840000Y-68580000D03*
D14*
X116840000Y-71120000D03*
X116840000Y-73660000D03*
X116840000Y-76200000D03*
X116840000Y-78740000D03*
X116840000Y-81280000D03*
X116840000Y-83820000D03*
X116840000Y-86360000D03*
X116840000Y-88900000D03*
X116840000Y-91440000D03*
X124460000Y-91440000D03*
X124460000Y-88900000D03*
X124460000Y-86360000D03*
X124460000Y-83820000D03*
X124460000Y-81280000D03*
X124460000Y-78740000D03*
X124460000Y-76200000D03*
X124460000Y-73660000D03*
X124460000Y-71120000D03*
X124460000Y-68580000D03*
%TD*%
%TO.C,C16*%
X99060000Y-4572000D03*
X94060000Y-4572000D03*
%TD*%
D13*
%TO.C,U9*%
X48260000Y-7620000D03*
D14*
X48260000Y-10160000D03*
X48260000Y-12700000D03*
X48260000Y-15240000D03*
X48260000Y-17780000D03*
X48260000Y-20320000D03*
X48260000Y-22860000D03*
X48260000Y-25400000D03*
X55880000Y-25400000D03*
X55880000Y-22860000D03*
X55880000Y-20320000D03*
X55880000Y-17780000D03*
X55880000Y-15240000D03*
X55880000Y-12700000D03*
X55880000Y-10160000D03*
X55880000Y-7620000D03*
%TD*%
D22*
%TO.C,J2*%
X137160000Y-76200000D03*
D23*
X134620000Y-76200000D03*
X137160000Y-78740000D03*
X134620000Y-78740000D03*
X137160000Y-81280000D03*
X134620000Y-81280000D03*
X137160000Y-83820000D03*
X134620000Y-83820000D03*
X137160000Y-86360000D03*
X134620000Y-86360000D03*
X137160000Y-88900000D03*
X134620000Y-88900000D03*
X137160000Y-91440000D03*
X134620000Y-91440000D03*
X137160000Y-93980000D03*
X134620000Y-93980000D03*
X137160000Y-96520000D03*
X134620000Y-96520000D03*
X137160000Y-99060000D03*
X134620000Y-99060000D03*
X137160000Y-101600000D03*
X134620000Y-101600000D03*
X137160000Y-104140000D03*
X134620000Y-104140000D03*
X137160000Y-106680000D03*
X134620000Y-106680000D03*
X137160000Y-109220000D03*
X134620000Y-109220000D03*
X137160000Y-111760000D03*
X134620000Y-111760000D03*
X137160000Y-114300000D03*
X134620000Y-114300000D03*
X137160000Y-116840000D03*
X134620000Y-116840000D03*
X137160000Y-119380000D03*
X134620000Y-119380000D03*
X137160000Y-121920000D03*
X134620000Y-121920000D03*
X137160000Y-124460000D03*
X134620000Y-124460000D03*
%TD*%
D27*
%TO.C,J11*%
X16000000Y-110000000D03*
D28*
X10000000Y-110000000D03*
D29*
X13000000Y-114700000D03*
%TD*%
D13*
%TO.C,U5*%
X63500000Y-58420000D03*
D14*
X63500000Y-60960000D03*
X63500000Y-63500000D03*
X63500000Y-66040000D03*
X63500000Y-68580000D03*
X63500000Y-71120000D03*
X63500000Y-73660000D03*
X63500000Y-76200000D03*
X71120000Y-76200000D03*
X71120000Y-73660000D03*
X71120000Y-71120000D03*
X71120000Y-68580000D03*
X71120000Y-66040000D03*
X71120000Y-63500000D03*
X71120000Y-60960000D03*
X71120000Y-58420000D03*
%TD*%
D13*
%TO.C,U7*%
X48260000Y-33020000D03*
D14*
X48260000Y-35560000D03*
X48260000Y-38100000D03*
X48260000Y-40640000D03*
X48260000Y-43180000D03*
X48260000Y-45720000D03*
X48260000Y-48260000D03*
X55880000Y-48260000D03*
X55880000Y-45720000D03*
X55880000Y-43180000D03*
X55880000Y-40640000D03*
X55880000Y-38100000D03*
X55880000Y-35560000D03*
X55880000Y-33020000D03*
%TD*%
D12*
%TO.C,R20*%
X11176000Y-53340000D03*
X9526000Y-53340000D03*
%TD*%
D13*
%TO.C,U10*%
X17780000Y-7620000D03*
D14*
X17780000Y-10160000D03*
X17780000Y-12700000D03*
X17780000Y-15240000D03*
X17780000Y-17780000D03*
X17780000Y-20320000D03*
X17780000Y-22860000D03*
X17780000Y-25400000D03*
X25400000Y-25400000D03*
X25400000Y-22860000D03*
X25400000Y-20320000D03*
X25400000Y-17780000D03*
X25400000Y-15240000D03*
X25400000Y-12700000D03*
X25400000Y-10160000D03*
X25400000Y-7620000D03*
%TD*%
%TO.C,C13*%
X71120000Y-29972000D03*
X66120000Y-29972000D03*
%TD*%
D22*
%TO.C,J1*%
X137160000Y-22860000D03*
D23*
X134620000Y-22860000D03*
X137160000Y-25400000D03*
X134620000Y-25400000D03*
X137160000Y-27940000D03*
X134620000Y-27940000D03*
X137160000Y-30480000D03*
X134620000Y-30480000D03*
X137160000Y-33020000D03*
X134620000Y-33020000D03*
X137160000Y-35560000D03*
X134620000Y-35560000D03*
X137160000Y-38100000D03*
X134620000Y-38100000D03*
X137160000Y-40640000D03*
X134620000Y-40640000D03*
X137160000Y-43180000D03*
X134620000Y-43180000D03*
X137160000Y-45720000D03*
X134620000Y-45720000D03*
X137160000Y-48260000D03*
X134620000Y-48260000D03*
X137160000Y-50800000D03*
X134620000Y-50800000D03*
X137160000Y-53340000D03*
X134620000Y-53340000D03*
X137160000Y-55880000D03*
X134620000Y-55880000D03*
X137160000Y-58420000D03*
X134620000Y-58420000D03*
X137160000Y-60960000D03*
X134620000Y-60960000D03*
X137160000Y-63500000D03*
X134620000Y-63500000D03*
X137160000Y-66040000D03*
X134620000Y-66040000D03*
X137160000Y-68580000D03*
X134620000Y-68580000D03*
X137160000Y-71120000D03*
X134620000Y-71120000D03*
%TD*%
D22*
%TO.C,J3*%
X154940000Y-22860000D03*
D23*
X152400000Y-22860000D03*
X154940000Y-25400000D03*
X152400000Y-25400000D03*
X154940000Y-27940000D03*
X152400000Y-27940000D03*
X154940000Y-30480000D03*
X152400000Y-30480000D03*
X154940000Y-33020000D03*
X152400000Y-33020000D03*
X154940000Y-35560000D03*
X152400000Y-35560000D03*
X154940000Y-38100000D03*
X152400000Y-38100000D03*
X154940000Y-40640000D03*
X152400000Y-40640000D03*
X154940000Y-43180000D03*
X152400000Y-43180000D03*
X154940000Y-45720000D03*
X152400000Y-45720000D03*
X154940000Y-48260000D03*
X152400000Y-48260000D03*
X154940000Y-50800000D03*
X152400000Y-50800000D03*
X154940000Y-53340000D03*
X152400000Y-53340000D03*
X154940000Y-55880000D03*
X152400000Y-55880000D03*
X154940000Y-58420000D03*
X152400000Y-58420000D03*
X154940000Y-60960000D03*
X152400000Y-60960000D03*
X154940000Y-63500000D03*
X152400000Y-63500000D03*
X154940000Y-66040000D03*
X152400000Y-66040000D03*
X154940000Y-68580000D03*
X152400000Y-68580000D03*
X154940000Y-71120000D03*
X152400000Y-71120000D03*
%TD*%
D12*
%TO.C,R5*%
X102742000Y-27940000D03*
X101092000Y-27940000D03*
%TD*%
D13*
%TO.C,U2*%
X83820000Y-88900000D03*
D14*
X83820000Y-91440000D03*
X83820000Y-93980000D03*
X83820000Y-96520000D03*
X83820000Y-99060000D03*
X83820000Y-101600000D03*
X83820000Y-104140000D03*
X83820000Y-106680000D03*
X83820000Y-109220000D03*
X83820000Y-111760000D03*
X83820000Y-114300000D03*
X83820000Y-116840000D03*
X83820000Y-119380000D03*
X83820000Y-121920000D03*
X99060000Y-121920000D03*
X99060000Y-119380000D03*
X99060000Y-116840000D03*
X99060000Y-114300000D03*
X99060000Y-111760000D03*
X99060000Y-109220000D03*
X99060000Y-106680000D03*
X99060000Y-104140000D03*
X99060000Y-101600000D03*
X99060000Y-99060000D03*
X99060000Y-96520000D03*
X99060000Y-93980000D03*
X99060000Y-91440000D03*
X99060000Y-88900000D03*
%TD*%
D13*
%TO.C,U16*%
X116840000Y-7620000D03*
D14*
X116840000Y-10160000D03*
X116840000Y-12700000D03*
X116840000Y-15240000D03*
X116840000Y-17780000D03*
X116840000Y-20320000D03*
X116840000Y-22860000D03*
X116840000Y-25400000D03*
X116840000Y-27940000D03*
X116840000Y-30480000D03*
X124460000Y-30480000D03*
X124460000Y-27940000D03*
X124460000Y-25400000D03*
X124460000Y-22860000D03*
X124460000Y-20320000D03*
X124460000Y-17780000D03*
X124460000Y-15240000D03*
X124460000Y-12700000D03*
X124460000Y-10160000D03*
X124460000Y-7620000D03*
%TD*%
D30*
%TO.C,J12*%
X14168000Y-103124000D03*
D31*
X11668000Y-103124000D03*
%TD*%
D22*
%TO.C,J6*%
X172720000Y-76200000D03*
D23*
X170180000Y-76200000D03*
X172720000Y-78740000D03*
X170180000Y-78740000D03*
X172720000Y-81280000D03*
X170180000Y-81280000D03*
X172720000Y-83820000D03*
X170180000Y-83820000D03*
X172720000Y-86360000D03*
X170180000Y-86360000D03*
X172720000Y-88900000D03*
X170180000Y-88900000D03*
X172720000Y-91440000D03*
X170180000Y-91440000D03*
X172720000Y-93980000D03*
X170180000Y-93980000D03*
X172720000Y-96520000D03*
X170180000Y-96520000D03*
X172720000Y-99060000D03*
X170180000Y-99060000D03*
X172720000Y-101600000D03*
X170180000Y-101600000D03*
X172720000Y-104140000D03*
X170180000Y-104140000D03*
X172720000Y-106680000D03*
X170180000Y-106680000D03*
X172720000Y-109220000D03*
X170180000Y-109220000D03*
X172720000Y-111760000D03*
X170180000Y-111760000D03*
X172720000Y-114300000D03*
X170180000Y-114300000D03*
X172720000Y-116840000D03*
X170180000Y-116840000D03*
X172720000Y-119380000D03*
X170180000Y-119380000D03*
X172720000Y-121920000D03*
X170180000Y-121920000D03*
X172720000Y-124460000D03*
X170180000Y-124460000D03*
%TD*%
D12*
%TO.C,R22*%
X11176000Y-38100000D03*
X9526000Y-38100000D03*
%TD*%
D16*
%TO.C,H4*%
X195000000Y-130000000D03*
%TD*%
D14*
%TO.C,C19*%
X124460000Y-35052000D03*
X119460000Y-35052000D03*
%TD*%
D15*
%TO.C,R10*%
X29338000Y-121920000D03*
X30988000Y-121920000D03*
%TD*%
D13*
%TO.C,U14*%
X17780000Y-63500000D03*
D14*
X17780000Y-66040000D03*
X17780000Y-68580000D03*
X17780000Y-71120000D03*
X17780000Y-73660000D03*
X17780000Y-76200000D03*
X17780000Y-78740000D03*
X25400000Y-78740000D03*
X25400000Y-76200000D03*
X25400000Y-73660000D03*
X25400000Y-71120000D03*
X25400000Y-68580000D03*
X25400000Y-66040000D03*
X25400000Y-63500000D03*
%TD*%
D13*
%TO.C,U13*%
X17780000Y-33020000D03*
D14*
X17780000Y-35560000D03*
X17780000Y-38100000D03*
X17780000Y-40640000D03*
X17780000Y-43180000D03*
X17780000Y-45720000D03*
X17780000Y-48260000D03*
X25400000Y-48260000D03*
X25400000Y-45720000D03*
X25400000Y-43180000D03*
X25400000Y-40640000D03*
X25400000Y-38100000D03*
X25400000Y-35560000D03*
X25400000Y-33020000D03*
%TD*%
%TO.C,C11*%
X55880000Y-29972000D03*
X50880000Y-29972000D03*
%TD*%
D15*
%TO.C,R18*%
X59818000Y-15240000D03*
X61468000Y-15240000D03*
%TD*%
D12*
%TO.C,R13*%
X51942000Y-116840000D03*
X50292000Y-116840000D03*
%TD*%
%TO.C,R19*%
X10160000Y-22860000D03*
X8510000Y-22860000D03*
%TD*%
D22*
%TO.C,J4*%
X154940000Y-76200000D03*
D23*
X152400000Y-76200000D03*
X154940000Y-78740000D03*
X152400000Y-78740000D03*
X154940000Y-81280000D03*
X152400000Y-81280000D03*
X154940000Y-83820000D03*
X152400000Y-83820000D03*
X154940000Y-86360000D03*
X152400000Y-86360000D03*
X154940000Y-88900000D03*
X152400000Y-88900000D03*
X154940000Y-91440000D03*
X152400000Y-91440000D03*
X154940000Y-93980000D03*
X152400000Y-93980000D03*
X154940000Y-96520000D03*
X152400000Y-96520000D03*
X154940000Y-99060000D03*
X152400000Y-99060000D03*
X154940000Y-101600000D03*
X152400000Y-101600000D03*
X154940000Y-104140000D03*
X152400000Y-104140000D03*
X154940000Y-106680000D03*
X152400000Y-106680000D03*
X154940000Y-109220000D03*
X152400000Y-109220000D03*
X154940000Y-111760000D03*
X152400000Y-111760000D03*
X154940000Y-114300000D03*
X152400000Y-114300000D03*
X154940000Y-116840000D03*
X152400000Y-116840000D03*
X154940000Y-119380000D03*
X152400000Y-119380000D03*
X154940000Y-121920000D03*
X152400000Y-121920000D03*
X154940000Y-124460000D03*
X152400000Y-124460000D03*
%TD*%
D12*
%TO.C,R6*%
X102742000Y-38100000D03*
X101092000Y-38100000D03*
%TD*%
D22*
%TO.C,J5*%
X172720000Y-22860000D03*
D23*
X170180000Y-22860000D03*
X172720000Y-25400000D03*
X170180000Y-25400000D03*
X172720000Y-27940000D03*
X170180000Y-27940000D03*
X172720000Y-30480000D03*
X170180000Y-30480000D03*
X172720000Y-33020000D03*
X170180000Y-33020000D03*
X172720000Y-35560000D03*
X170180000Y-35560000D03*
X172720000Y-38100000D03*
X170180000Y-38100000D03*
X172720000Y-40640000D03*
X170180000Y-40640000D03*
X172720000Y-43180000D03*
X170180000Y-43180000D03*
X172720000Y-45720000D03*
X170180000Y-45720000D03*
X172720000Y-48260000D03*
X170180000Y-48260000D03*
X172720000Y-50800000D03*
X170180000Y-50800000D03*
X172720000Y-53340000D03*
X170180000Y-53340000D03*
X172720000Y-55880000D03*
X170180000Y-55880000D03*
X172720000Y-58420000D03*
X170180000Y-58420000D03*
X172720000Y-60960000D03*
X170180000Y-60960000D03*
X172720000Y-63500000D03*
X170180000Y-63500000D03*
X172720000Y-66040000D03*
X170180000Y-66040000D03*
X172720000Y-68580000D03*
X170180000Y-68580000D03*
X172720000Y-71120000D03*
X170180000Y-71120000D03*
%TD*%
D16*
%TO.C,H2*%
X195000000Y-5000000D03*
%TD*%
D13*
%TO.C,U12*%
X33020000Y-33020000D03*
D14*
X33020000Y-35560000D03*
X33020000Y-38100000D03*
X33020000Y-40640000D03*
X33020000Y-43180000D03*
X33020000Y-45720000D03*
X33020000Y-48260000D03*
X40640000Y-48260000D03*
X40640000Y-45720000D03*
X40640000Y-43180000D03*
X40640000Y-40640000D03*
X40640000Y-38100000D03*
X40640000Y-35560000D03*
X40640000Y-33020000D03*
%TD*%
%TO.C,C10*%
X55880000Y-4572000D03*
X50880000Y-4572000D03*
%TD*%
D13*
%TO.C,U11*%
X33020000Y-7620000D03*
D14*
X33020000Y-10160000D03*
X33020000Y-12700000D03*
X33020000Y-15240000D03*
X33020000Y-17780000D03*
X33020000Y-20320000D03*
X33020000Y-22860000D03*
X33020000Y-25400000D03*
X40640000Y-25400000D03*
X40640000Y-22860000D03*
X40640000Y-20320000D03*
X40640000Y-17780000D03*
X40640000Y-15240000D03*
X40640000Y-12700000D03*
X40640000Y-10160000D03*
X40640000Y-7620000D03*
%TD*%
D13*
%TO.C,U19*%
X116840000Y-99060000D03*
D14*
X116840000Y-101600000D03*
X116840000Y-104140000D03*
X116840000Y-106680000D03*
X116840000Y-109220000D03*
X116840000Y-111760000D03*
X116840000Y-114300000D03*
X116840000Y-116840000D03*
X116840000Y-119380000D03*
X116840000Y-121920000D03*
X124460000Y-121920000D03*
X124460000Y-119380000D03*
X124460000Y-116840000D03*
X124460000Y-114300000D03*
X124460000Y-111760000D03*
X124460000Y-109220000D03*
X124460000Y-106680000D03*
X124460000Y-104140000D03*
X124460000Y-101600000D03*
X124460000Y-99060000D03*
%TD*%
D12*
%TO.C,R7*%
X102742000Y-35560000D03*
X101092000Y-35560000D03*
%TD*%
D32*
%TO.C,SW1*%
X3660000Y-28520000D03*
X10160000Y-28520000D03*
X3660000Y-33020000D03*
X10160000Y-33020000D03*
%TD*%
D14*
%TO.C,C3*%
X12700000Y-59182000D03*
X7700000Y-59182000D03*
%TD*%
D13*
%TO.C,U17*%
X116840000Y-38100000D03*
D14*
X116840000Y-40640000D03*
X116840000Y-43180000D03*
X116840000Y-45720000D03*
X116840000Y-48260000D03*
X116840000Y-50800000D03*
X116840000Y-53340000D03*
X116840000Y-55880000D03*
X116840000Y-58420000D03*
X116840000Y-60960000D03*
X124460000Y-60960000D03*
X124460000Y-58420000D03*
X124460000Y-55880000D03*
X124460000Y-53340000D03*
X124460000Y-50800000D03*
X124460000Y-48260000D03*
X124460000Y-45720000D03*
X124460000Y-43180000D03*
X124460000Y-40640000D03*
X124460000Y-38100000D03*
%TD*%
D12*
%TO.C,R14*%
X51942000Y-114300000D03*
X50292000Y-114300000D03*
%TD*%
D16*
%TO.C,H3*%
X5000000Y-130000000D03*
%TD*%
D14*
%TO.C,C22*%
X17272000Y-125222000D03*
X12272000Y-125222000D03*
%TD*%
D22*
%TO.C,J9*%
X16240000Y-83980000D03*
D23*
X16240000Y-86520000D03*
X16240000Y-89060000D03*
X16240000Y-91600000D03*
X16240000Y-94140000D03*
X16240000Y-96680000D03*
%TD*%
M02*
